<?xml version="1.0" encoding="utf-8"?>
<!-- Generator: Adobe Illustrator 22.0.1, SVG Export Plug-In . SVG Version: 6.00 Build 0)  -->
<svg version="1.1" id="a9370ae1-210a-4918-a96d-edf406e909af"
	 xmlns="http://www.w3.org/2000/svg" xmlns:xlink="http://www.w3.org/1999/xlink" x="0px" y="0px" viewBox="0 0 1086 811.4"
	 style="enable-background:new 0 0 1086 811.4;" xml:space="preserve">
<style type="text/css">
	.st0{opacity:0.5;fill:#009688;enable-background:new    ;}
	.st1{fill:#009688;}
	.st2{opacity:0.2;fill:#009688;enable-background:new    ;}
	.st3{opacity:0.3;fill:#009688;enable-background:new    ;}
	.st4{opacity:0.1;}
	.st5{fill:#3F3D56;}
	.st6{opacity:0.1;enable-background:new    ;}
	.st7{opacity:0.6;}
	.st8{opacity:0.8;}
</style>
<title>festivities</title>
<path class="st0" d="M222.7,26.8c-2.4-3.3-7.4,0.3-5.2,3.7c0.6,0.9,1.2,1.8,1.9,2.6c7.5,10,11.3,22.3,14.6,34.3c0.8,3,1.6,6.1,0.7,9
	c1.3-7.8,0.5-15.9-1.5-23.6s-5.1-15-8.4-22.3C224.2,29.2,223.5,28,222.7,26.8z"/>
<path class="st1" d="M174.3,48c-5-0.2-5.7,7.5-0.7,7.9c1.3,0.1,2.6,0.1,3.9,0.2c15.4,0.4,29.9,6,43.9,12c3.4,1.5,7,3.1,9,6.3
	c-6.3-7.3-14.6-12.7-23.4-16.6s-18.2-6.5-27.6-8.9C177.8,48.3,176.1,48.1,174.3,48z"/>
<path class="st2" d="M175.7,66.7c-3.2,0.1-2.5,4.6,0.7,4.7c0.8,0,1.7,0,2.5-0.1c9.7-0.4,19.7,2.3,29.3,5.2c2.4,0.7,4.9,1.5,6.6,3.3
	c-5.1-4-10.9-6.9-17.1-8.8c-6.1-1.8-12.3-3.2-18.6-4.1C178,66.7,176.8,66.7,175.7,66.7z"/>
<path class="st0" d="M240.7,150.6c0.9,3.1,5.1,1.2,4.3-1.9c-0.2-0.8-0.5-1.6-0.7-2.4c-2.8-9.3-2.7-19.6-2.2-29.7
	c0.1-2.5,0.3-5.1,1.6-7.2c-2.6,5.9-4,12.3-4.3,18.8c-0.2,6.4,0,12.7,0.6,19.1C240.2,148.4,240.4,149.5,240.7,150.6z"/>
<path class="st2" d="M181.5,22.6c-1.9-0.3-2.1,2.4-0.1,2.9c0.5,0.1,1,0.2,1.5,0.3c5.9,1,11.4,3.9,16.8,6.8c1.4,0.6,2.6,1.6,3.5,2.8
	c-2.6-3-5.6-5.5-9.1-7.4c-3.4-1.9-7-3.5-10.6-4.8C182.8,22.9,182.2,22.7,181.5,22.6z"/>
<path class="st1" d="M152,96.4c-4.9,2.5-0.8,9.4,4.2,7.1c1.3-0.6,2.6-1.3,3.8-1.9c14.8-7.7,32-10.5,49-12.7c4.1-0.5,8.6-1,12.4,0.6
	c-10.5-2.9-21.6-3.2-32.4-1.9s-21.3,3.9-31.6,6.8C155.5,94.8,153.7,95.5,152,96.4z"/>
<path class="st0" d="M165.9,123c-3.5,3.3,2,7.1,5.6,4c1-0.8,1.9-1.7,2.7-2.5c10.6-10,24.6-17.1,38.6-23.6c3.4-1.6,17.5-3.2,21.3-3.1
	c-9.8,0.9-29.9,4-38.9,8c-8.8,4.2-17.2,8.9-25.4,14.2C168.5,120.9,167.1,121.9,165.9,123z"/>
<path class="st1" d="M190.7,165.6c-1,4.6,5.6,4.7,6.9,0.1c0.3-1.2,0.6-2.4,0.8-3.6c3.1-14.2,10.6-28.1,18.4-41.4
	c1.9-3.3,12.6-12.6,15.7-14.7c-7.6,6.3-22.4,20.3-27.4,28.7c-4.8,8.4-9.1,17.1-12.8,26.1C191.6,162.3,191.1,163.9,190.7,165.6z"/>
<path class="st1" d="M240.7,2.2c-2.4-4.8-9.2-0.9-7,4.1c0.6,1.3,1.2,2.6,1.8,3.8c7.3,14.8,9.8,31.9,11.7,48.7
	c0.5,4.1,0.9,8.5-0.8,12.3c3.1-10.3,3.5-21.4,2.4-32.1s-3.5-21.1-6.2-31.5C242.2,5.7,241.5,3.9,240.7,2.2z"/>
<path class="st1" d="M202.9,10.4c0.1,0.1,0.3,0.1,0.4,0.1c0.3,0,0.5-0.3,0.6-0.5c0.6-1.3,0.3-3,1.2-4c0.9,1.1,1.7,2.3,2.2,3.6l3.5-1
	c0.3,1.4,0.1,2.8-0.7,4c0.6,0.3,1.2,0.6,1.6,1.1c0.5,0.5,0.6,1.2,0.4,1.8c-0.8,0.2-1.6,0.3-2.5,0.2c0.1,1.5,0,3.1-0.3,4.6
	c0,0.2-0.1,0.4-0.3,0.6c-0.3,0.2-0.6,0-0.9-0.1c-1.2-0.7-2.2-1.8-2.9-3l-1.3,3.1c-0.1,0.3-0.3,0.6-0.6,0.8c-0.4,0.1-0.9,0-1.1-0.4
	c-0.2-0.4-0.3-0.8-0.4-1.2l-0.5-2.9c0-0.2-0.1-0.3-0.2-0.4c-0.1-0.1-0.3-0.2-0.5-0.2c-1.2,0-2.5,0-3.7,0c-0.2-0.7,0.4-1.3,1.1-1.5
	s1.4-0.5,1.7-1.1c0.6-1.3-1-3-0.3-4C200.5,8.7,201.9,9.9,202.9,10.4z"/>
<path class="st0" d="M270.1,26.8c2.4-3.3,7.4,0.3,5.2,3.7c-0.6,0.9-1.2,1.8-1.9,2.6c-7.5,10-11.3,22.3-14.6,34.3
	c-0.8,3-1.6,6.1-0.7,9c-1.3-7.8-0.5-15.9,1.5-23.6s5.1-15.1,8.4-22.3C268.6,29.2,269.3,28,270.1,26.8z"/>
<path class="st1" d="M318.5,48c5-0.2,5.7,7.5,0.7,7.9c-1.3,0.1-2.6,0.1-3.9,0.2c-15.4,0.4-30,6-43.9,12c-3.4,1.5-7,3.1-9,6.3
	c6.3-7.3,14.6-12.7,23.4-16.6s18.2-6.5,27.6-8.9C315,48.3,316.8,48.1,318.5,48z"/>
<path class="st0" d="M317.1,66.7c3.2,0.1,2.5,4.6-0.7,4.7c-0.8,0-1.7,0-2.5-0.1c-9.7-0.4-19.6,2.3-29.3,5.2
	c-2.4,0.7-4.9,1.5-6.6,3.3c5.1-4,10.9-6.9,17.1-8.8c6.1-1.8,12.3-3.2,18.6-4.1C314.9,66.7,316,66.7,317.1,66.7z"/>
<path class="st2" d="M311.3,22.6c1.9-0.3,2.1,2.4,0.2,2.9c-0.5,0.1-1,0.2-1.5,0.3c-5.9,1-11.4,3.9-16.8,6.8
	c-1.4,0.6-2.6,1.6-3.5,2.8c2.6-3,5.6-5.5,9.1-7.4c3.4-1.9,7-3.5,10.6-4.8C310,22.9,310.6,22.7,311.3,22.6z"/>
<path class="st2" d="M261.6,156.4c-0.4,1.9-3.1,1-2.7-1c0.1-0.5,0.2-1,0.3-1.5c1.3-5.8,0.9-12.1,0.2-18.2c-0.1-1.5-0.5-3-1.3-4.3
	c1.8,3.5,2.9,7.4,3.3,11.3c0.4,3.9,0.5,7.8,0.4,11.6C261.8,155,261.7,155.7,261.6,156.4z"/>
<path class="st0" d="M310.1,143.8c1.5,2.5-2.2,2.4-3.8-0.2c-0.4-0.7-0.8-1.3-1.2-2c-4.5-7.7-11.5-15.4-18.4-22.8
	c-1.7-1.9-3.6-3.6-5.7-4.9c5.5,3.7,10.5,8,15,12.8c4.5,4.7,8.4,9.5,12.3,14.4C308.9,142,309.6,142.9,310.1,143.8z"/>
<path class="st2" d="M177.3,143.8c-1.5,2.5,2.2,2.4,3.8-0.2c0.4-0.7,0.8-1.3,1.2-2c4.5-7.7,11.5-15.4,18.4-22.8
	c1.6-1.9,3.6-3.6,5.7-4.9c-5.4,3.7-10.5,8-15,12.8c-4.5,4.7-8.4,9.5-12.3,14.4C178.5,142,177.9,142.9,177.3,143.8z"/>
<path class="st2" d="M225.9,156.4c0.4,1.9,3,1,2.7-1c-0.1-0.5-0.2-1-0.3-1.5c-1.3-5.8-0.9-12.1-0.2-18.2c0.1-1.5,0.5-3,1.2-4.3
	c-1.8,3.5-2.9,7.4-3.3,11.3c-0.4,3.9-0.5,7.8-0.4,11.6C225.7,155,225.7,155.7,225.9,156.4z"/>
<path class="st2" d="M296,41.6c1.9-0.3,2,2.4,0.1,2.9c-0.5,0.1-1,0.2-1.5,0.3c-5.9,1-11.5,3.9-16.8,6.8c-1.4,0.6-2.6,1.6-3.5,2.8
	c2.6-3,5.6-5.5,9.1-7.4c3.4-1.9,7-3.5,10.6-4.8C294.7,41.9,295.3,41.7,296,41.6z"/>
<path class="st2" d="M278.2,4.3c1.6-1,2.8,1.5,1.2,2.6c-0.4,0.3-0.9,0.6-1.3,0.8c-5,3.1-9.2,7.9-13,12.6c-1,1.1-1.8,2.5-2.2,3.9
	c1.2-3.7,3.2-7.2,5.7-10.3c2.5-3,5.1-5.8,8-8.4C277,5.1,277.6,4.7,278.2,4.3z"/>
<path class="st1" d="M340.8,96.4c4.9,2.5,0.8,9.4-4.2,7.1c-1.3-0.6-2.6-1.3-3.8-1.9c-14.8-7.7-32-10.5-49-12.7
	c-4.1-0.5-8.6-1-12.4,0.6c10.5-2.9,21.6-3.2,32.4-1.9s21.3,3.9,31.6,6.8C337.3,94.8,339.1,95.5,340.8,96.4z"/>
<path class="st0" d="M327,123c3.5,3.3-2,7.1-5.6,4c-1-0.8-1.9-1.7-2.7-2.5c-10.7-10-24.7-17.1-38.7-23.6c-3.4-1.6-17.5-3.2-21.3-3.1
	c9.9,0.9,30,4,38.9,8c8.8,4.2,17.2,8.9,25.4,14.2C324.4,120.9,325.7,121.9,327,123z"/>
<path class="st1" d="M285.9,170.9c0.4,4.7-6.2,4-6.8-0.8c-0.2-1.2-0.3-2.5-0.4-3.7c-1.3-14.5-7-29.2-13-43.3
	c-1.5-3.5-10.9-14.1-13.8-16.6c6.8,7.2,19.7,22.9,23.6,31.9c3.8,9,6.9,18.1,9.4,27.5C285.4,167.6,285.8,169.2,285.9,170.9z"/>
<path class="st1" d="M289.9,10.4c-0.1,0.1-0.3,0.1-0.4,0.1c-0.3,0-0.4-0.3-0.5-0.5c-0.6-1.3-0.3-3-1.2-4c-0.9,1.1-1.7,2.3-2.2,3.6
	l-3.5-1c-0.3,1.4-0.1,2.8,0.7,4c-0.6,0.3-1.2,0.6-1.6,1.1c-0.5,0.5-0.6,1.2-0.4,1.8c0.8,0.2,1.6,0.3,2.5,0.2c-0.1,1.5,0,3.1,0.3,4.6
	c0,0.2,0.1,0.4,0.3,0.6c0.3,0.2,0.6,0,0.9-0.1c1.2-0.7,2.2-1.8,2.9-3l1.3,3.1c0.1,0.3,0.3,0.6,0.6,0.8c0.4,0.1,0.9,0,1.1-0.4
	c0.2-0.4,0.3-0.8,0.4-1.2l0.5-2.9c0-0.2,0.1-0.3,0.2-0.4c0.1-0.1,0.3-0.2,0.5-0.2c1.2,0,2.5,0,3.7,0c0.2-0.7-0.4-1.3-1.1-1.5
	s-1.4-0.5-1.7-1.1c-0.6-1.3,1-3,0.3-4C292.3,8.7,291,9.9,289.9,10.4z"/>
<path class="st2" d="M300.4,153.8c-0.1,0.1-0.3,0.1-0.4,0.1c-0.3,0-0.5-0.3-0.6-0.5c-0.6-1.3-0.3-3-1.2-4c-0.9,1.1-1.7,2.4-2.2,3.7
	l-3.5-1.1c-0.3,1.4-0.1,2.8,0.7,4c-0.6,0.3-1.2,0.6-1.6,1.1c-0.5,0.5-0.6,1.2-0.4,1.8c0.8,0.2,1.6,0.3,2.5,0.3
	c-0.1,1.5,0,3.1,0.3,4.6c0,0.2,0.1,0.4,0.3,0.6c0.3,0.2,0.6,0,0.9-0.1c1.2-0.7,2.2-1.8,2.9-3l1.3,3.1c0.1,0.3,0.3,0.6,0.6,0.8
	c0.4,0.1,0.9,0,1.1-0.4c0.2-0.4,0.3-0.8,0.4-1.2l0.5-3c0-0.2,0.1-0.3,0.2-0.4c0.2-0.1,0.3-0.2,0.5-0.1c1.2,0,2.5,0,3.7,0
	c0.2-0.6-0.4-1.3-1.1-1.5s-1.4-0.5-1.7-1.1c-0.6-1.2,1-3,0.3-4C302.8,152,301.5,153.3,300.4,153.8z"/>
<path class="st1" d="M329.9,57.7c-0.1,0.1-0.3,0.1-0.4,0.1c-0.3,0-0.5-0.3-0.6-0.5c-0.6-1.3-0.3-3-1.2-4c-0.9,1.1-1.7,2.4-2.2,3.7
	l-3.5-1.1c-0.3,1.4-0.1,2.8,0.7,4c-0.6,0.3-1.2,0.6-1.6,1.1c-0.5,0.5-0.6,1.2-0.4,1.8c0.8,0.2,1.6,0.3,2.5,0.2
	c-0.1,1.5,0,3.1,0.3,4.6c0,0.2,0.1,0.4,0.3,0.6c0.3,0.2,0.6,0,0.9-0.1c1.2-0.7,2.2-1.8,2.9-3l1.3,3.1c0.1,0.3,0.3,0.6,0.6,0.8
	c0.4,0.1,0.9,0,1.1-0.4c0.2-0.4,0.3-0.8,0.4-1.2l0.5-3c0-0.2,0.1-0.3,0.2-0.4c0.1-0.1,0.3-0.2,0.5-0.2c1.2,0,2.5,0,3.7,0
	c0.2-0.7-0.4-1.3-1.1-1.5s-1.4-0.5-1.7-1.1c-0.6-1.3,1-3,0.3-4C332.3,55.9,331,57.2,329.9,57.7z"/>
<path class="st1" d="M211.9,168.2c-0.2,0.1-0.4,0.2-0.6,0.2c-0.4,0-0.6-0.4-0.8-0.7c-0.8-1.8-0.4-4.1-1.6-5.6
	c-1.3,1.6-2.3,3.3-3.1,5.2l-4.9-1.5c-0.5,1.9-0.1,3.9,0.9,5.6c-0.9,0.4-1.6,0.9-2.3,1.6c-0.7,0.7-0.9,1.7-0.6,2.6
	c1.1,0.3,2.3,0.4,3.4,0.4c-0.2,2.1-0.1,4.3,0.4,6.4c0,0.3,0.2,0.6,0.4,0.8c0.4,0.2,0.8,0,1.2-0.2c1.7-1,3.1-2.5,4-4.2l1.8,4.3
	c0.1,0.4,0.4,0.8,0.8,1.1c0.6,0.2,1.2,0,1.5-0.5c0.3-0.5,0.5-1.1,0.5-1.6l0.7-4.1c0-0.2,0.1-0.4,0.2-0.6c0.2-0.2,0.5-0.2,0.7-0.2
	c1.7,0,3.4-0.1,5.1,0c0.3-0.9-0.6-1.8-1.5-2.1c-0.9-0.4-1.9-0.7-2.4-1.5c-0.9-1.7,1.4-4.1,0.4-5.6
	C215.3,165.7,213.4,167.5,211.9,168.2z"/>
<path class="st1" d="M162.9,60.6c-0.2,0.1-0.4,0.2-0.6,0.2c-0.4,0-0.6-0.4-0.8-0.7c-0.8-1.8-0.4-4.1-1.6-5.6
	c-1.3,1.6-2.3,3.3-3.1,5.2l-4.9-1.5c-0.5,1.9-0.1,3.9,0.9,5.6c-0.9,0.4-1.6,0.9-2.3,1.6c-0.7,0.7-0.9,1.7-0.6,2.6
	c1.1,0.3,2.3,0.4,3.4,0.3c-0.2,2.1-0.1,4.3,0.4,6.4c0,0.5,0.3,0.9,0.8,1c0.3,0,0.6-0.1,0.8-0.3c1.7-1,3.1-2.5,4-4.2l1.8,4.3
	c0.1,0.4,0.4,0.8,0.8,1.1c0.6,0.2,1.2,0,1.5-0.5c0.3-0.5,0.5-1.1,0.5-1.6l0.7-4.1c0-0.2,0.1-0.4,0.2-0.6c0.2-0.2,0.5-0.2,0.7-0.2
	c1.7,0,3.4-0.1,5.1-0.1c0.3-0.9-0.6-1.8-1.5-2.1s-1.9-0.7-2.4-1.5c-0.9-1.7,1.4-4.1,0.4-5.6C166.2,58.1,164.3,59.8,162.9,60.6z"/>
<path class="st2" d="M311.8,127.2c-0.1,0.1-0.2,0.1-0.3,0.1c-0.2,0-0.3-0.2-0.4-0.4c-0.4-1-0.2-2.2-0.9-3c-0.7,0.8-1.2,1.8-1.6,2.8
	l-2.6-0.8c-0.2,1-0.1,2.1,0.5,3c-0.5,0.2-0.9,0.5-1.2,0.8c-0.4,0.4-0.5,0.9-0.3,1.4c0.6,0.1,1.2,0.2,1.8,0.2c-0.1,1.1,0,2.3,0.2,3.4
	c0,0.2,0.1,0.3,0.2,0.4c0.2,0.1,0.5,0,0.6-0.1c0.9-0.6,1.6-1.3,2.1-2.3l1,2.3c0.1,0.2,0.2,0.4,0.4,0.6c0.3,0.1,0.6,0,0.8-0.3
	c0.2-0.3,0.3-0.6,0.3-0.9l0.4-2.2c0-0.1,0-0.2,0.1-0.3c0.1-0.1,0.2-0.1,0.4-0.1h2.7c0.1-0.5-0.3-0.9-0.8-1.1s-1-0.4-1.3-0.8
	c-0.5-0.9,0.8-2.2,0.2-3S312.6,126.8,311.8,127.2z"/>
<path class="st2" d="M245.1,165.7c-0.1,0-0.2,0.1-0.3,0.1c-0.2,0-0.4-0.2-0.4-0.4c-0.4-1-0.2-2.2-0.9-3c-0.7,0.8-1.2,1.8-1.6,2.8
	l-2.6-0.8c-0.2,1-0.1,2.1,0.5,3c-0.4,0.2-0.9,0.5-1.2,0.8c-0.4,0.4-0.5,0.9-0.3,1.4c0.6,0.1,1.2,0.2,1.8,0.2c-0.1,1.1,0,2.3,0.2,3.4
	c0,0.2,0.1,0.3,0.2,0.4c0.2,0.1,0.4,0,0.6-0.1c0.9-0.6,1.6-1.3,2.1-2.3l1,2.3c0.1,0.2,0.2,0.4,0.4,0.6c0.3,0.1,0.6,0,0.8-0.3
	c0.2-0.3,0.3-0.6,0.3-0.9l0.4-2.2c0-0.1,0-0.2,0.1-0.3c0.1-0.1,0.2-0.1,0.4-0.1c0.9,0,1.8,0,2.7,0c0.1-0.5-0.3-0.9-0.8-1.1
	c-0.5-0.2-1-0.4-1.3-0.8c-0.5-0.9,0.8-2.2,0.2-3C247,164.5,245.9,165.3,245.1,165.7z"/>
<path class="st0" d="M180.6,31c-0.1,0.1-0.2,0.1-0.3,0.1c-0.2,0-0.4-0.2-0.4-0.4c-0.4-1-0.2-2.2-0.9-3c-0.7,0.8-1.2,1.7-1.6,2.8
	l-2.6-0.8c-0.3,1-0.1,2.1,0.5,3c-0.5,0.2-0.9,0.5-1.2,0.8c-0.4,0.4-0.5,0.9-0.3,1.4c0.6,0.2,1.2,0.2,1.8,0.2c-0.1,1.1,0,2.3,0.2,3.4
	c0,0.2,0.1,0.3,0.2,0.4c0.2,0.1,0.4,0,0.6-0.1c0.9-0.6,1.6-1.3,2.1-2.3l1,2.3c0.1,0.2,0.2,0.4,0.4,0.6c0.3,0.1,0.6,0,0.8-0.3
	c0.2-0.3,0.3-0.6,0.3-0.9l0.4-2.2c0-0.1,0-0.2,0.1-0.3c0.1-0.1,0.2-0.1,0.4-0.1c0.9,0,1.8,0,2.7,0c0.2-0.5-0.3-0.9-0.8-1.1
	s-1-0.3-1.3-0.8c-0.5-0.9,0.8-2.2,0.2-3S181.4,30.6,180.6,31z"/>
<path class="st0" d="M214.9,106.9c-0.1,0.1-0.2,0.1-0.3,0.1c-0.2,0-0.3-0.2-0.4-0.4c-0.4-0.9-0.2-2.2-0.9-3
	c-0.7,0.8-1.2,1.8-1.6,2.8l-2.6-0.8c-0.3,1-0.1,2.1,0.5,3c-0.5,0.2-0.9,0.5-1.2,0.8c-0.4,0.4-0.5,0.9-0.3,1.4
	c0.6,0.1,1.2,0.2,1.8,0.2c-0.1,1.1,0,2.3,0.2,3.4c0,0.2,0.1,0.3,0.2,0.4c0.2,0.1,0.4,0,0.6-0.1c0.9-0.5,1.6-1.3,2.1-2.2l1,2.3
	c0.1,0.2,0.2,0.4,0.4,0.6c0.3,0.1,0.6,0,0.8-0.3c0.2-0.3,0.3-0.6,0.3-0.9l0.4-2.2c0-0.1,0-0.2,0.1-0.3c0.1-0.1,0.2-0.1,0.4-0.1
	c0.9,0,1.8,0,2.7,0c0.2-0.5-0.3-0.9-0.8-1.1s-1-0.4-1.3-0.8c-0.5-0.9,0.8-2.2,0.2-3S215.7,106.5,214.9,106.9z"/>
<path class="st0" d="M190,77.3c-0.1,0.1-0.2,0.1-0.3,0.1c-0.2,0-0.3-0.2-0.4-0.4c-0.4-0.9-0.2-2.2-0.9-3c-0.7,0.8-1.2,1.8-1.6,2.8
	l-2.6-0.8c-0.3,1-0.1,2.1,0.5,3c-0.4,0.2-0.9,0.5-1.2,0.8c-0.4,0.4-0.5,0.9-0.3,1.4c0.6,0.1,1.2,0.2,1.8,0.2c-0.1,1.1,0,2.3,0.2,3.4
	c0,0.2,0.1,0.3,0.2,0.4c0.2,0.1,0.4,0,0.6-0.1c0.9-0.5,1.6-1.3,2.1-2.2l1,2.3c0.1,0.2,0.2,0.4,0.4,0.6c0.3,0.1,0.6,0,0.8-0.3
	c0.2-0.3,0.3-0.6,0.3-0.9l0.4-2.2c0-0.1,0-0.2,0.1-0.3c0.1-0.1,0.2-0.1,0.4-0.1c0.9,0,1.8,0,2.7,0c0.1-0.5-0.3-0.9-0.8-1.1
	s-1-0.4-1.3-0.8c-0.5-0.9,0.8-2.2,0.2-3S190.8,76.9,190,77.3z"/>
<path class="st0" d="M297.1,84.3c-0.1,0.1-0.2,0.1-0.3,0.1c-0.2,0-0.3-0.2-0.4-0.4c-0.4-0.9-0.2-2.2-0.9-3c-0.7,0.8-1.2,1.8-1.6,2.8
	l-2.6-0.8c-0.2,1-0.1,2.1,0.5,2.9c-0.5,0.2-0.9,0.5-1.2,0.8c-0.4,0.4-0.5,0.9-0.3,1.4c0.6,0.1,1.2,0.2,1.8,0.2
	c-0.1,1.1,0,2.3,0.2,3.4c0,0.2,0.1,0.3,0.2,0.4c0.2,0.1,0.4,0,0.6-0.1c0.9-0.6,1.6-1.3,2.1-2.2l1,2.3c0.1,0.2,0.2,0.4,0.4,0.6
	c0.3,0.1,0.6,0,0.8-0.3c0.2-0.3,0.3-0.6,0.3-0.9l0.4-2.2c0-0.1,0-0.2,0.1-0.3c0.1-0.1,0.2-0.1,0.4-0.1c0.9,0,1.8,0,2.7,0
	c0.1-0.5-0.3-0.9-0.8-1.1s-1-0.4-1.3-0.8c-0.5-0.9,0.8-2.2,0.2-3S297.9,83.9,297.1,84.3z"/>
<path class="st2" d="M245.1,78.5c-0.1,0.1-0.2,0.1-0.3,0.1c-0.2,0-0.3-0.2-0.4-0.4c-0.4-1-0.2-2.2-0.9-3c-0.7,0.8-1.2,1.8-1.6,2.8
	l-2.6-0.8c-0.3,1-0.1,2.1,0.5,3c-0.5,0.2-0.9,0.5-1.2,0.8c-0.4,0.4-0.5,0.9-0.3,1.4c0.6,0.1,1.2,0.2,1.8,0.2c-0.1,1.1,0,2.3,0.2,3.4
	c0,0.2,0.1,0.3,0.2,0.4c0.2,0.1,0.4,0,0.6-0.1c0.9-0.6,1.6-1.3,2.1-2.3l1,2.3c0.1,0.2,0.2,0.4,0.4,0.6c0.3,0.1,0.6,0,0.8-0.3
	c0.2-0.3,0.3-0.6,0.3-0.9l0.4-2.2c0-0.1,0-0.2,0.1-0.3c0.1-0.1,0.2-0.1,0.4-0.1c0.9,0,1.8,0,2.7,0c0.1-0.5-0.3-0.9-0.8-1.1
	s-1-0.4-1.3-0.8c-0.5-0.9,0.8-2.2,0.2-3S245.9,78.1,245.1,78.5z"/>
<path class="st3" d="M228.8,85.5c-0.1,0.1-0.2,0.1-0.3,0.1c-0.2,0-0.3-0.2-0.4-0.4c-0.4-1-0.2-2.2-0.9-3c-0.7,0.8-1.2,1.8-1.6,2.8
	l-2.6-0.8c-0.2,1-0.1,2.1,0.5,2.9c-0.5,0.2-0.9,0.5-1.2,0.8c-0.4,0.4-0.5,0.9-0.3,1.4c0.6,0.1,1.2,0.2,1.8,0.2
	c-0.1,1.1,0,2.3,0.2,3.4c0,0.2,0.1,0.3,0.2,0.4c0.2,0.1,0.4,0,0.6-0.1c0.9-0.6,1.6-1.3,2.1-2.3l1,2.3c0.1,0.2,0.2,0.4,0.4,0.6
	c0.3,0.1,0.6,0,0.8-0.3c0.2-0.3,0.3-0.6,0.3-0.9l0.4-2.2c0-0.1,0-0.2,0.1-0.3c0.1-0.1,0.2-0.1,0.4-0.1c0.9,0,1.8,0,2.7,0
	c0.1-0.5-0.3-0.9-0.8-1.1s-1-0.4-1.3-0.8c-0.5-0.9,0.8-2.2,0.2-3S229.6,85.2,228.8,85.5z"/>
<path class="st2" d="M213.6,42.7c-0.1,0.1-0.2,0.1-0.3,0.1c-0.2,0-0.3-0.2-0.4-0.4c-0.4-1-0.2-2.2-0.9-3c-0.7,0.8-1.2,1.7-1.6,2.7
	l-2.6-0.8c-0.3,1-0.1,2.1,0.5,3c-0.5,0.2-0.9,0.5-1.2,0.8c-0.3,0.4-0.5,0.9-0.3,1.4c0.6,0.1,1.2,0.2,1.8,0.2c-0.1,1.1,0,2.3,0.2,3.4
	c0,0.2,0.1,0.3,0.2,0.4c0.2,0.1,0.4,0,0.6-0.1c0.9-0.5,1.6-1.3,2.1-2.3l1,2.3c0.1,0.2,0.2,0.4,0.4,0.6c0.3,0.1,0.7-0.1,0.8-0.4
	c0.2-0.3,0.3-0.6,0.3-0.9l0.4-2.2c0-0.1,0-0.2,0.1-0.3c0.1-0.1,0.2-0.1,0.4-0.1c0.9,0,1.8,0,2.7,0c0.2-0.5-0.3-0.9-0.8-1.1
	s-1-0.4-1.3-0.8c-0.5-0.9,0.8-2.2,0.2-3S214.4,42.2,213.6,42.7z"/>
<path class="st3" d="M243.5,98.7c-0.1,0.1-0.2,0.1-0.3,0.1c-0.2,0-0.3-0.2-0.4-0.4c-0.4-0.9-0.2-2.2-0.9-3c-0.7,0.8-1.2,1.8-1.6,2.8
	l-2.6-0.8c-0.3,1-0.1,2.1,0.5,3c-0.5,0.2-0.9,0.5-1.2,0.8c-0.3,0.4-0.5,0.9-0.3,1.4c0.6,0.1,1.2,0.2,1.8,0.2c-0.1,1.1,0,2.3,0.2,3.4
	c0,0.2,0.1,0.3,0.2,0.4c0.2,0.1,0.5,0,0.6-0.1c0.9-0.6,1.6-1.3,2.1-2.3l1,2.3c0.1,0.2,0.2,0.4,0.4,0.6c0.3,0.1,0.6,0,0.8-0.3
	c0.2-0.3,0.3-0.6,0.3-0.9l0.4-2.2c0-0.2,0.2-0.4,0.4-0.4c0,0,0.1,0,0.1,0c0.9,0,1.8,0,2.7,0c0.2-0.5-0.3-0.9-0.8-1.1s-1-0.4-1.3-0.8
	c-0.5-0.9,0.8-2.2,0.2-3S244.3,98.2,243.5,98.7z"/>
<g class="st4">
	<ellipse class="st5" cx="780.8" cy="757.5" rx="18" ry="23.5"/>
	<path class="st5" d="M795,656.7c2.5-4.4,3.8-9.3,3.8-14.4c0-13-8.1-23.6-18-23.6s-18,10.5-18,23.6c0,5,1.3,10,3.8,14.4
		c-5,8.9-5,19.8,0,28.8c-5,8.9-5,19.8,0,28.8c-2.5,4.4-3.8,9.4-3.8,14.4c0,13,8.1,23.5,18,23.5s18-10.5,18-23.5c0-5-1.3-10-3.8-14.4
		c5-8.9,5-19.8,0-28.8C800,676.6,800,665.6,795,656.7z"/>
	<ellipse class="st5" cx="780.8" cy="613.5" rx="18" ry="23.5"/>
	<ellipse class="st5" cx="780.8" cy="584.8" rx="18" ry="23.5"/>
	<path class="st1" d="M848.1,387.8c2.5-3.1,4.7-6.4,6.7-9.9l-47.3-7.8l51.1,0.4c9.9-21.6,10.5-46.3,1.7-68.3l-68.6,35.6l63.3-46.5
		c-23.8-41.2-76.6-55.3-117.8-31.4c-41.2,23.8-55.3,76.6-31.4,117.8c2,3.5,4.3,6.9,6.9,10.1c-3.8,4.9-7.1,10.1-9.8,15.7l61.4,31.9
		l-65.4-22c-9.3,27.6-4.1,58,13.9,80.9c-29.4,37.4-22.9,91.6,14.5,121s91.6,22.9,121-14.5c24.6-31.3,24.6-75.3,0-106.6
		C872.7,463,872.7,419,848.1,387.8L848.1,387.8z"/>
	<path class="st6" d="M694.2,441c0,19.3,6.5,38.1,18.4,53.3c-29.4,37.4-22.9,91.6,14.5,121s91.6,22.9,121-14.5
		c24.6-31.3,24.6-75.3,0-106.6C859.7,479.7,694.2,431.4,694.2,441z"/>
</g>
<g class="st4">
	<ellipse class="st5" cx="164.2" cy="757.5" rx="18" ry="23.5"/>
	<path class="st5" d="M178.4,656.7c2.5-4.4,3.8-9.3,3.8-14.4c0-13-8.1-23.6-18-23.6s-18,10.5-18,23.6c0,5,1.3,10,3.8,14.4
		c-5,8.9-5,19.8,0,28.8c-5,8.9-5,19.8,0,28.8c-2.5,4.4-3.8,9.4-3.8,14.4c0,13,8.1,23.5,18,23.5s18-10.5,18-23.5c0-5-1.3-10-3.8-14.4
		c5-8.9,5-19.8,0-28.8C183.5,676.5,183.5,665.6,178.4,656.7L178.4,656.7z"/>
	<ellipse class="st5" cx="164.2" cy="613.5" rx="18" ry="23.5"/>
	<ellipse class="st5" cx="164.2" cy="584.8" rx="18" ry="23.5"/>
	<path class="st1" d="M96.9,387.8c-2.5-3.1-4.7-6.4-6.7-9.9l47.3-7.8l-51.1,0.4c-9.9-21.6-10.5-46.3-1.6-68.3l68.6,35.6L90,291.3
		c23.8-41.2,76.6-55.3,117.8-31.4s55.3,76.6,31.4,117.8c-2,3.5-4.3,6.9-6.9,10.1c3.8,4.9,7.1,10.1,9.8,15.7l-61.4,31.9l65.4-22
		c9.3,27.6,4.1,58-13.9,80.9c29.4,37.4,22.9,91.6-14.5,121s-91.6,22.9-121-14.5c-24.6-31.3-24.6-75.3,0-106.6
		C72.3,463,72.3,419,96.9,387.8L96.9,387.8z"/>
	<path class="st6" d="M250.8,441c0,19.3-6.5,38.1-18.4,53.3c29.4,37.4,22.9,91.6-14.5,121s-91.6,22.9-121-14.5
		c-24.6-31.3-24.6-75.3,0-106.6C85.3,479.7,250.8,431.4,250.8,441z"/>
</g>
<g class="st4">
	<ellipse class="st5" cx="453.3" cy="757.5" rx="18" ry="23.5"/>
	<path class="st5" d="M467.5,656.7c2.5-4.4,3.8-9.3,3.8-14.4c0-13-8-23.6-18-23.6s-18,10.5-18,23.6c0,5,1.3,10,3.8,14.4
		c-5,8.9-5,19.8,0,28.8c-5,8.9-5,19.8,0,28.8c-2.5,4.4-3.8,9.4-3.8,14.4c0,13,8.1,23.5,18,23.5c9.9,0,18-10.5,18-23.5
		c0-5-1.2-10-3.8-14.4c5-8.9,5-19.8,0-28.8C472.6,676.5,472.6,665.6,467.5,656.7L467.5,656.7z"/>
	<ellipse class="st5" cx="453.3" cy="613.5" rx="18" ry="23.5"/>
	<ellipse class="st5" cx="453.3" cy="584.8" rx="18" ry="23.5"/>
	<path class="st1" d="M386,387.8c-2.5-3.1-4.7-6.4-6.7-9.9l47.3-7.8l-51.1,0.4c-9.9-21.6-10.5-46.3-1.6-68.3l68.6,35.6l-63.3-46.5
		c23.9-41.2,76.6-55.2,117.8-31.4c41.2,23.9,55.2,76.6,31.4,117.8c-2,3.5-4.3,6.9-6.8,10c3.8,4.9,7.1,10.1,9.8,15.7l-61.4,31.9
		l65.4-22c9.3,27.6,4.1,58-13.9,80.9c29.4,37.4,22.9,91.6-14.5,121s-91.6,22.9-121-14.5c-24.6-31.3-24.6-75.3,0-106.6
		C361.4,463,361.4,419,386,387.8L386,387.8z"/>
	<path class="st6" d="M539.9,441c0,19.3-6.5,38.1-18.4,53.3c29.4,37.4,22.9,91.6-14.5,121s-91.6,22.9-121-14.5
		c-24.6-31.3-24.6-75.3,0-106.6C374.4,479.7,539.9,431.4,539.9,441z"/>
</g>
<g class="st7">
	<path class="st0" d="M523.5,139.9c-0.7-0.9-2-1-2.8-0.3c-0.8,0.6-1,1.8-0.4,2.6c0.4,0.6,0.8,1.1,1.2,1.6c4.7,6.3,7.1,14,9.2,21.6
		c0.5,1.9,1,3.9,0.4,5.7c0.7-5,0.4-10.1-1-14.9c-1.4-4.8-3.1-9.5-5.3-14.1C524.4,141.4,524,140.7,523.5,139.9z"/>
	<path class="st1" d="M493,153.3c-3.2-0.1-3.6,4.7-0.4,5c0.8,0.1,1.7,0.1,2.5,0.1c9.7,0.3,18.9,3.8,27.7,7.6c2.2,0.9,4.4,2,5.7,4
		c-4.1-4.5-9.1-8.1-14.8-10.5c-5.6-2.4-11.5-4.2-17.4-5.6C495.2,153.5,494.1,153.3,493,153.3z"/>
	<path class="st2" d="M493.9,165.1c-2,0.1-1.5,2.9,0.5,2.9c0.5,0,1,0,1.5,0c6.1-0.3,12.4,1.4,18.5,3.3c1.5,0.3,3,1.1,4.2,2.1
		c-3.2-2.5-6.9-4.4-10.8-5.5c-3.8-1.2-7.8-2-11.7-2.6C495.3,165.1,494.6,165.1,493.9,165.1z"/>
	<path class="st0" d="M534.8,217.9c0.6,1.9,3.2,0.8,2.7-1.2c-0.1-0.5-0.3-1-0.4-1.5c-1.8-5.9-1.7-12.4-1.4-18.7c0-1.6,0.3-3.1,1-4.5
		c-1.6,3.7-2.5,7.7-2.7,11.8c-0.2,4,0,8,0.4,12C534.5,216.5,534.6,217.2,534.8,217.9z"/>
	<path class="st2" d="M497.5,137.3c-1.2-0.2-1.3,1.6-0.1,1.8l0.9,0.2c3.7,0.6,7.2,2.4,10.6,4.3c0.9,0.4,1.6,1,2.2,1.8
		c-1.6-1.9-3.6-3.5-5.7-4.7c-2.2-1.2-4.4-2.2-6.7-3C498.4,137.5,498,137.4,497.5,137.3z"/>
	<path class="st1" d="M478.9,183.7c-3,1.6-0.5,5.9,2.7,4.5c0.8-0.4,1.6-0.8,2.4-1.2c9.3-4.9,20.2-6.6,30.8-8
		c2.6-0.3,5.4-0.6,7.8,0.4c-6.7-1.7-13.6-2.1-20.4-1.2c-6.7,0.9-13.4,2.4-19.9,4.3C481.1,182.8,480,183.2,478.9,183.7z"/>
	<path class="st0" d="M487.7,200.5c-2.2,2,1.2,4.5,3.5,2.5c0.6-0.5,1.2-1.1,1.7-1.6c6.7-6.3,15.5-10.8,24.3-14.9c2.2-1,11-2,13.4-2
		c-6.2,0.6-18.9,2.5-24.5,5c-5.5,2.6-10.9,5.6-16,9C489.3,199.2,488.4,199.8,487.7,200.5z"/>
	<path class="st1" d="M503.3,227.4c-0.6,2.9,3.5,3,4.3,0c0.2-0.8,0.4-1.5,0.5-2.3c1.9-9,6.7-17.7,11.6-26.1c1.2-2.1,7.9-8,9.9-9.3
		c-4.8,4-14.1,12.8-17.3,18.1c-3,5.3-5.7,10.8-8,16.5C503.9,225.3,503.6,226.3,503.3,227.4z"/>
	<path class="st1" d="M534.8,124.4c-1.5-3.1-5.8-0.5-4.4,2.6c0.3,0.8,0.8,1.6,1.1,2.4c4.6,9.3,6.2,20.1,7.4,30.7
		c0.3,2.6,0.5,5.4-0.5,7.8c1.8-6.6,2.3-13.4,1.5-20.2c-0.8-6.7-2.1-13.3-3.9-19.8C535.7,126.6,535.3,125.5,534.8,124.4z"/>
	<path class="st1" d="M511,129.6c0.1,0,0.2,0.1,0.3,0.1c0.2,0,0.3-0.1,0.3-0.3c0.4-0.8,0.2-1.9,0.7-2.5c0.6,0.7,1.1,1.5,1.4,2.3
		l2.2-0.7c0.2,0.9,0.1,1.8-0.4,2.5c0.4,0.2,0.7,0.4,1,0.7c0.3,0.3,0.4,0.8,0.3,1.2c-0.5,0.1-1,0.2-1.5,0.2c0.1,1,0,1.9-0.2,2.9
		c0,0.1-0.1,0.3-0.2,0.4c-0.2,0.1-0.4,0-0.5-0.1c-0.8-0.5-1.4-1.1-1.8-1.9l-0.8,1.9c-0.1,0.2-0.2,0.4-0.4,0.5
		c-0.3,0.1-0.5,0-0.7-0.2c-0.1-0.2-0.2-0.5-0.2-0.7l-0.3-1.9c0-0.1,0-0.2-0.1-0.3c-0.1-0.1-0.2-0.1-0.3-0.1c-0.8,0-1.5,0-2.3,0
		c-0.1-0.4,0.3-0.8,0.7-1c0.4-0.2,0.9-0.3,1.1-0.7c0.4-0.8-0.6-1.9-0.2-2.5C509.4,128.6,510.3,129.3,511,129.6z"/>
	<path class="st0" d="M553.4,139.9c0.6-0.9,1.9-1.1,2.8-0.5c0.9,0.6,1.1,1.9,0.5,2.8c-0.4,0.6-0.8,1.1-1.2,1.6
		c-4.7,6.3-7.1,14-9.2,21.6c-0.5,1.9-1,3.9-0.4,5.7c-0.7-5-0.4-10.1,1-14.9c1.4-4.8,3.1-9.5,5.3-14.1
		C552.4,141.4,552.8,140.7,553.4,139.9z"/>
	<path class="st1" d="M583.8,153.3c3.2-0.1,3.6,4.7,0.4,5c-0.8,0.1-1.7,0.1-2.5,0.1c-9.7,0.3-18.9,3.8-27.7,7.6
		c-2.2,0.9-4.4,2-5.7,4c4.1-4.5,9.1-8.1,14.8-10.5c5.6-2.4,11.5-4.2,17.4-5.6C581.6,153.5,582.7,153.3,583.8,153.3z"/>
	<path class="st0" d="M583,165.1c2,0.1,1.5,2.9-0.5,2.9c-0.5,0-1,0-1.5,0c-6.1-0.3-12.4,1.4-18.5,3.3c-1.5,0.3-3,1.1-4.2,2.1
		c3.2-2.5,6.9-4.4,10.8-5.5c3.8-1.1,7.8-2,11.7-2.6C581.6,165.1,582.3,165.1,583,165.1z"/>
	<path class="st2" d="M579.3,137.3c1.2-0.2,1.3,1.6,0.1,1.8l-0.9,0.2c-3.7,0.6-7.2,2.4-10.6,4.3c-0.9,0.4-1.6,1-2.2,1.8
		c1.6-1.9,3.5-3.5,5.7-4.7c2.2-1.2,4.4-2.2,6.7-3C578.5,137.5,578.9,137.4,579.3,137.3z"/>
	<path class="st2" d="M548,221.5c-0.3,1.2-1.9,0.6-1.7-0.6c0-0.3,0.1-0.6,0.2-0.9c0.8-3.6,0.5-7.6,0.1-11.4c0-1-0.3-1.9-0.8-2.7
		c1.1,2.2,1.8,4.6,2.1,7.1c0.3,2.4,0.3,4.9,0.2,7.3C548.1,220.7,548.1,221.1,548,221.5z"/>
	<path class="st0" d="M578.5,213.6c0.9,1.6-1.4,1.5-2.4-0.1c-0.3-0.4-0.5-0.8-0.8-1.2c-2.9-4.9-7.2-9.7-11.6-14.3
		c-1-1.2-2.2-2.3-3.6-3.1c3.4,2.3,6.6,5,9.4,8.1c2.8,3,5.3,6,7.7,9.1C577.8,212.5,578.2,213,578.5,213.6z"/>
	<path class="st2" d="M494.9,213.6c-0.9,1.6,1.4,1.5,2.4-0.1c0.3-0.4,0.5-0.8,0.7-1.2c2.9-4.9,7.2-9.7,11.6-14.3
		c1-1.2,2.3-2.3,3.6-3.1c-3.4,2.3-6.6,5-9.4,8.1c-2.8,3-5.3,6-7.7,9.1C495.6,212.5,495.2,213,494.9,213.6z"/>
	<path class="st2" d="M525.5,221.5c0.3,1.2,1.9,0.6,1.7-0.6c-0.1-0.3-0.1-0.6-0.2-0.9c-0.8-3.6-0.5-7.6-0.1-11.4
		c0-1,0.3-1.9,0.8-2.7c-1.1,2.2-1.8,4.6-2.1,7.1c-0.3,2.4-0.3,4.9-0.2,7.3C525.3,220.7,525.4,221.1,525.5,221.5z"/>
	<path class="st2" d="M569.7,149.2c1.2-0.2,1.3,1.5,0.1,1.8c-0.3,0.1-0.6,0.1-0.9,0.2c-3.7,0.6-7.2,2.4-10.6,4.3
		c-0.9,0.4-1.6,1-2.2,1.8c1.6-1.9,3.6-3.5,5.7-4.7c2.2-1.2,4.4-2.2,6.7-3C568.8,149.5,569.2,149.3,569.7,149.2z"/>
	<path class="st2" d="M558.4,125.8c1-0.6,1.8,0.9,0.8,1.6l-0.8,0.5c-3.2,2-5.8,5-8.2,8c-0.7,0.7-1.1,1.5-1.4,2.5
		c0.8-2.4,2-4.6,3.6-6.5c1.6-1.9,3.2-3.7,5.1-5.3C557.7,126.3,558.1,126,558.4,125.8z"/>
	<path class="st1" d="M597.9,183.7c3,1.6,0.5,5.9-2.7,4.5c-0.8-0.4-1.6-0.8-2.4-1.2c-9.3-4.9-20.2-6.6-30.8-8
		c-2.6-0.3-5.4-0.6-7.8,0.4c6.7-1.7,13.6-2.1,20.4-1.2c6.7,0.9,13.4,2.4,19.9,4.3C595.7,182.8,596.8,183.2,597.9,183.7z"/>
	<path class="st0" d="M589.2,200.5c2.2,2-1.2,4.5-3.5,2.5c-0.6-0.5-1.2-1.1-1.7-1.6c-6.7-6.3-15.5-10.8-24.3-14.9
		c-2.2-1-11-2-13.4-2c6.2,0.6,18.9,2.5,24.5,5c5.5,2.6,10.9,5.6,16,9C587.5,199.2,588.4,199.8,589.2,200.5z"/>
	<path class="st1" d="M563.3,230.7c0.3,3-3.9,2.5-4.3-0.5c-0.1-0.8-0.2-1.6-0.2-2.3c-0.8-9.1-4.4-18.4-8.2-27.3
		c-0.9-2.2-6.9-8.9-8.7-10.4c4.3,4.6,12.4,14.4,14.9,20.1c2.4,5.6,4.3,11.4,5.9,17.3C563,228.6,563.2,229.6,563.3,230.7z"/>
	<path class="st1" d="M565.8,129.6c-0.1,0-0.2,0.1-0.3,0.1c-0.2,0-0.3-0.2-0.3-0.3c-0.4-0.8-0.2-1.9-0.7-2.5
		c-0.6,0.7-1.1,1.5-1.4,2.3l-2.2-0.7c-0.2,0.9-0.1,1.8,0.4,2.5c-0.4,0.2-0.7,0.4-1,0.7c-0.3,0.3-0.4,0.8-0.3,1.2
		c0.5,0.1,1,0.2,1.5,0.2c-0.1,1,0,1.9,0.2,2.9c0,0.1,0.1,0.3,0.2,0.4c0.2,0.1,0.4,0,0.5-0.1c0.8-0.5,1.4-1.1,1.8-1.9l0.8,1.9
		c0.1,0.2,0.2,0.4,0.4,0.5c0.3,0.1,0.5,0,0.7-0.2c0.1-0.2,0.2-0.5,0.2-0.7l0.3-1.9c0-0.1,0-0.2,0.1-0.3c0.1-0.1,0.2-0.1,0.3-0.1
		c0.8,0,1.5,0,2.3,0c0.1-0.4-0.3-0.8-0.7-1c-0.4-0.2-0.9-0.3-1.1-0.7c-0.4-0.8,0.7-1.9,0.2-2.5C567.4,128.6,566.5,129.3,565.8,129.6
		z"/>
	<path class="st2" d="M572.4,219.9c-0.1,0-0.2,0.1-0.3,0.1c-0.2,0-0.3-0.2-0.3-0.3c-0.4-0.8-0.2-1.9-0.7-2.5
		c-0.6,0.7-1.1,1.5-1.4,2.3l-2.2-0.7c-0.2,0.9-0.1,1.8,0.4,2.5c-0.4,0.2-0.7,0.4-1,0.7c-0.3,0.3-0.4,0.8-0.3,1.2
		c0.5,0.1,1,0.2,1.5,0.1c-0.1,1,0,1.9,0.2,2.9c0,0.1,0.1,0.3,0.2,0.4c0.2,0.1,0.4,0,0.5-0.1c0.8-0.5,1.4-1.1,1.8-1.9l0.8,1.9
		c0.1,0.2,0.2,0.4,0.4,0.5c0.3,0.1,0.5,0,0.7-0.2c0.1-0.2,0.2-0.5,0.3-0.7l0.3-1.9c0-0.1,0-0.2,0.1-0.3c0.1-0.1,0.2-0.1,0.3-0.1
		c0.8,0,1.5,0,2.3,0c0.1-0.4-0.3-0.8-0.7-1s-0.9-0.3-1.1-0.7c-0.4-0.8,0.6-1.9,0.2-2.5S573.1,219.6,572.4,219.9z"/>
	<path class="st1" d="M591,159.4c-0.1,0-0.2,0.1-0.3,0.1c-0.2,0-0.3-0.2-0.3-0.3c-0.4-0.8-0.2-1.9-0.7-2.5c-0.6,0.7-1.1,1.5-1.4,2.3
		l-2.2-0.7c-0.2,0.9-0.1,1.8,0.4,2.5c-0.4,0.2-0.7,0.4-1,0.7c-0.3,0.3-0.4,0.8-0.3,1.2c0.5,0.1,1,0.2,1.5,0.1c-0.1,1,0,1.9,0.2,2.9
		c0,0.1,0.1,0.3,0.2,0.4c0.2,0.1,0.4,0,0.5-0.1c0.8-0.5,1.4-1.1,1.8-1.9l0.8,1.9c0.1,0.2,0.2,0.4,0.4,0.5c0.3,0.1,0.5,0,0.7-0.2
		c0.1-0.2,0.2-0.5,0.2-0.7l0.3-1.9c0-0.1,0-0.2,0.1-0.3c0.1-0.1,0.2-0.1,0.3-0.1c0.8,0,1.5,0,2.3,0c0.1-0.4-0.3-0.8-0.7-1
		c-0.4-0.2-0.9-0.3-1.1-0.7c-0.4-0.8,0.6-1.9,0.2-2.5C592.6,158.4,591.7,159,591,159.4z"/>
	<path class="st1" d="M516.7,229c-0.1,0.1-0.2,0.1-0.4,0.1c-0.2,0-0.4-0.2-0.5-0.5c-0.5-1.1-0.2-2.6-1-3.5c-0.8,1-1.5,2.1-1.9,3.3
		l-3.1-0.9c-0.3,1.2-0.1,2.5,0.6,3.5c-0.5,0.2-1,0.6-1.4,1c-0.4,0.4-0.6,1-0.4,1.6c0.7,0.2,1.4,0.3,2.2,0.2c-0.1,1.3,0,2.7,0.2,4
		c0,0.2,0.1,0.4,0.3,0.5c0.2,0.1,0.5,0,0.7-0.1c1.1-0.7,1.9-1.6,2.5-2.7l1.1,2.7c0.1,0.3,0.3,0.5,0.5,0.7c0.4,0.2,0.8,0,1-0.3
		c0.2-0.3,0.3-0.6,0.3-1l0.4-2.6c0-0.3,0.2-0.5,0.5-0.5c0,0,0.1,0,0.1,0c1.1,0,2.2,0,3.2,0c0.2-0.6-0.4-1.1-0.9-1.4s-1.2-0.4-1.5-1
		c-0.6-1.1,0.9-2.6,0.3-3.5C518.8,227.4,517.6,228.5,516.7,229z"/>
	<path class="st1" d="M485.8,161.2c-0.1,0.1-0.2,0.1-0.4,0.1c-0.2,0-0.4-0.2-0.5-0.4c-0.5-1.1-0.2-2.6-1-3.6c-0.8,1-1.5,2.1-1.9,3.3
		l-3.1-1c-0.3,1.2-0.1,2.5,0.6,3.5c-0.5,0.2-1,0.6-1.4,1c-0.4,0.4-0.6,1.1-0.4,1.6c0.7,0.2,1.4,0.2,2.2,0.2c-0.1,1.3,0,2.7,0.2,4
		c0,0.2,0.1,0.4,0.3,0.5c0.2,0.1,0.5,0,0.7-0.1c1.1-0.7,1.9-1.6,2.5-2.7l1.1,2.7c0.1,0.3,0.3,0.5,0.5,0.7c0.4,0.1,0.7,0,1-0.3
		c0.2-0.3,0.3-0.6,0.3-1l0.4-2.6c0-0.1,0.1-0.3,0.2-0.4c0.1-0.1,0.3-0.2,0.5-0.1c1.1,0,2.2,0,3.2,0c0.2-0.6-0.4-1.1-0.9-1.4
		c-0.6-0.2-1.2-0.4-1.5-1c-0.6-1.1,0.9-2.6,0.3-3.5C487.9,159.7,486.7,160.7,485.8,161.2z"/>
	<path class="st2" d="M579.6,203.2c-0.1,0-0.1,0.1-0.2,0.1c-0.1,0-0.2-0.1-0.3-0.2c-0.3-0.6-0.1-1.4-0.5-1.9c-0.4,0.5-0.8,1.1-1,1.7
		l-1.6-0.5c-0.2,0.6,0,1.3,0.3,1.9c-0.3,0.1-0.5,0.3-0.8,0.5c-0.2,0.2-0.3,0.6-0.2,0.9c0.4,0.1,0.8,0.1,1.1,0.1
		c-0.1,0.7,0,1.4,0.1,2.1c0,0.1,0.1,0.2,0.1,0.3c0.1,0.1,0.3,0,0.4-0.1c0.6-0.3,1-0.8,1.3-1.4l0.6,1.5c0,0.1,0.1,0.3,0.3,0.4
		c0.2,0.1,0.4,0,0.5-0.2c0.1-0.2,0.1-0.4,0.2-0.6l0.2-1.4c0-0.1,0.1-0.3,0.3-0.3c0,0,0,0,0,0c0.6,0,1.1,0,1.7,0
		c0.1-0.3-0.2-0.6-0.5-0.7s-0.7-0.2-0.8-0.5c-0.3-0.6,0.5-1.4,0.1-1.9S580.1,202.9,579.6,203.2z"/>
	<path class="st2" d="M537.6,227.4c-0.1,0-0.1,0.1-0.2,0.1c-0.1,0-0.2-0.1-0.3-0.2c-0.3-0.6-0.1-1.4-0.5-1.9c-0.4,0.5-0.8,1.1-1,1.7
		l-1.6-0.5c-0.2,0.6,0,1.3,0.3,1.9c-0.3,0.1-0.5,0.3-0.8,0.5c-0.2,0.2-0.3,0.6-0.2,0.9c0.4,0.1,0.8,0.1,1.1,0.1
		c-0.1,0.7,0,1.4,0.1,2.1c0,0.1,0.1,0.2,0.1,0.3c0.1,0.1,0.3,0,0.4-0.1c0.6-0.3,1-0.8,1.3-1.4l0.6,1.5c0,0.1,0.1,0.3,0.3,0.4
		c0.2,0.1,0.4,0,0.5-0.2c0.1-0.2,0.2-0.3,0.2-0.5l0.2-1.4c0-0.1,0.1-0.3,0.3-0.3c0,0,0,0,0,0c0.6,0,1.1,0,1.7,0
		c0.1-0.3-0.2-0.6-0.5-0.7s-0.7-0.2-0.8-0.5c-0.3-0.6,0.5-1.4,0.1-1.9S538.1,227.2,537.6,227.4z"/>
	<path class="st0" d="M497,142.6c-0.1,0-0.1,0.1-0.2,0.1c-0.1,0-0.2-0.1-0.3-0.2c-0.3-0.6-0.1-1.4-0.5-1.9c-0.4,0.5-0.8,1.1-1,1.7
		l-1.7-0.5c-0.2,0.6-0.1,1.3,0.3,1.9c-0.3,0.1-0.5,0.3-0.8,0.5c-0.2,0.2-0.3,0.6-0.2,0.9c0.4,0.1,0.8,0.1,1.2,0.1
		c-0.1,0.7,0,1.4,0.1,2.1c0,0.1,0.1,0.2,0.1,0.3c0.1,0.1,0.3,0,0.4-0.1c0.6-0.3,1-0.8,1.3-1.4l0.6,1.4c0,0.1,0.1,0.3,0.3,0.4
		c0.2,0.1,0.4,0,0.5-0.2c0.1-0.2,0.2-0.4,0.2-0.6l0.2-1.4c0-0.1,0-0.1,0.1-0.2c0.1-0.1,0.2-0.1,0.2-0.1c0.6,0,1.1,0,1.7,0
		c0.1-0.3-0.2-0.6-0.5-0.7s-0.6-0.2-0.8-0.5c-0.3-0.6,0.5-1.4,0.2-1.9S497.5,142.3,497,142.6z"/>
	<path class="st0" d="M518.6,190.4c-0.1,0-0.1,0-0.2,0c-0.1,0-0.2-0.1-0.3-0.2c-0.3-0.6-0.1-1.4-0.5-1.9c-0.4,0.5-0.8,1.1-1,1.7
		l-1.6-0.5c-0.2,0.6,0,1.3,0.3,1.9c-0.3,0.1-0.5,0.3-0.8,0.5c-0.2,0.2-0.3,0.6-0.2,0.9c0.4,0.1,0.8,0.1,1.2,0.1
		c-0.1,0.7,0,1.4,0.1,2.1c0,0.1,0.1,0.2,0.1,0.3c0.1,0.1,0.3,0,0.4-0.1c0.6-0.3,1-0.8,1.3-1.4l0.6,1.4c0,0.1,0.1,0.3,0.3,0.4
		c0.2,0.1,0.4,0,0.5-0.2c0.1-0.2,0.2-0.4,0.2-0.5l0.2-1.4c0-0.1,0-0.1,0.1-0.2c0.1,0,0.2-0.1,0.2-0.1c0.6,0,1.2,0,1.7,0
		c0.1-0.3-0.2-0.6-0.5-0.7s-0.6-0.2-0.8-0.5c-0.3-0.6,0.5-1.4,0.2-1.9S519.1,190.1,518.6,190.4z"/>
	<path class="st0" d="M502.9,171.7c-0.1,0-0.1,0.1-0.2,0.1c-0.1,0-0.2-0.1-0.3-0.2c-0.3-0.6-0.1-1.4-0.5-1.9c-0.4,0.5-0.8,1.1-1,1.7
		l-1.6-0.5c-0.2,0.6,0,1.3,0.3,1.9c-0.3,0.1-0.5,0.3-0.8,0.5c-0.2,0.2-0.3,0.6-0.2,0.9c0.4,0.1,0.8,0.1,1.2,0.1
		c-0.1,0.7,0,1.4,0.1,2.1c0,0.1,0.1,0.2,0.1,0.3c0.1,0.1,0.3,0,0.4-0.1c0.6-0.3,1-0.8,1.3-1.4l0.6,1.4c0,0.1,0.1,0.3,0.3,0.4
		c0.2,0.1,0.4,0,0.5-0.2c0.1-0.2,0.2-0.4,0.2-0.6l0.2-1.4c0-0.1,0-0.1,0.1-0.2c0.1-0.1,0.2-0.1,0.2-0.1c0.6,0,1.2,0,1.7,0
		c0.1-0.3-0.2-0.6-0.5-0.7c-0.3-0.1-0.6-0.2-0.8-0.5c-0.3-0.6,0.5-1.4,0.2-1.9S503.4,171.5,502.9,171.7z"/>
	<path class="st0" d="M570.3,176.1c-0.1,0-0.1,0.1-0.2,0.1c-0.1,0-0.2-0.1-0.3-0.2c-0.3-0.6-0.1-1.4-0.5-1.9c-0.4,0.5-0.8,1.1-1,1.7
		l-1.6-0.5c-0.2,0.6,0,1.3,0.3,1.9c-0.3,0.1-0.5,0.3-0.8,0.5c-0.2,0.2-0.3,0.6-0.2,0.9c0.4,0.1,0.8,0.1,1.2,0.1
		c-0.1,0.7,0,1.4,0.1,2.1c0,0.1,0.1,0.2,0.1,0.3c0.1,0.1,0.3,0,0.4-0.1c0.6-0.3,1-0.8,1.3-1.4l0.6,1.5c0,0.1,0.1,0.3,0.3,0.4
		c0.2,0.1,0.4,0,0.5-0.2c0.1-0.2,0.2-0.4,0.2-0.5l0.2-1.4c0-0.1,0.1-0.3,0.3-0.3c0,0,0,0,0,0c0.6,0,1.1,0,1.7,0
		c0.1-0.3-0.2-0.6-0.5-0.7c-0.3-0.1-0.6-0.2-0.8-0.5c-0.3-0.6,0.5-1.4,0.2-1.9S570.8,175.9,570.3,176.1z"/>
	<path class="st2" d="M537.6,172.5c-0.1,0-0.1,0.1-0.2,0.1c-0.1,0-0.2-0.1-0.3-0.2c-0.3-0.6-0.1-1.4-0.5-1.9c-0.4,0.5-0.8,1.1-1,1.7
		l-1.6-0.5c-0.2,0.6,0,1.3,0.3,1.9c-0.3,0.1-0.5,0.3-0.8,0.5c-0.2,0.2-0.3,0.6-0.2,0.9c0.4,0.1,0.8,0.1,1.1,0.1
		c-0.1,0.7,0,1.4,0.1,2.1c0,0.1,0.1,0.2,0.1,0.3c0.1,0.1,0.3,0,0.4-0.1c0.6-0.3,1-0.8,1.3-1.4l0.6,1.5c0,0.1,0.1,0.3,0.3,0.4
		c0.2,0.1,0.4,0,0.5-0.2c0.1-0.2,0.2-0.3,0.2-0.5l0.2-1.4c0-0.1,0.1-0.3,0.3-0.3c0,0,0,0,0,0c0.6,0,1.1,0,1.7,0
		c0.1-0.3-0.2-0.6-0.5-0.7s-0.7-0.2-0.8-0.5c-0.3-0.6,0.5-1.4,0.1-1.9S538.1,172.2,537.6,172.5z"/>
	<path class="st3" d="M527.3,176.9c-0.1,0-0.1,0.1-0.2,0.1c-0.1,0-0.2-0.1-0.3-0.2c-0.3-0.6-0.1-1.4-0.5-1.9c-0.4,0.5-0.8,1.1-1,1.7
		l-1.6-0.5c-0.2,0.6,0,1.3,0.3,1.9c-0.3,0.1-0.5,0.3-0.8,0.5c-0.2,0.2-0.3,0.6-0.2,0.9c0.4,0.1,0.8,0.1,1.1,0.1
		c-0.1,0.7,0,1.4,0.1,2.1c0,0.1,0.1,0.2,0.1,0.3c0.1,0.1,0.3,0,0.4-0.1c0.6-0.3,1-0.8,1.3-1.4l0.6,1.4c0,0.2,0.1,0.3,0.3,0.4
		c0.2,0.1,0.4,0,0.5-0.2c0.1-0.2,0.2-0.4,0.2-0.5l0.2-1.4c0-0.1,0.1-0.3,0.3-0.3c0,0,0,0,0,0c0.6,0,1.1,0,1.7,0
		c0.1-0.3-0.2-0.6-0.5-0.7s-0.6-0.2-0.8-0.5c-0.3-0.6,0.5-1.4,0.1-1.9S527.8,176.7,527.3,176.9z"/>
	<path class="st2" d="M517.8,149.9c-0.1,0-0.1,0.1-0.2,0.1c-0.1,0-0.2-0.1-0.3-0.2c-0.3-0.6-0.1-1.4-0.5-1.9c-0.4,0.5-0.8,1.1-1,1.7
		l-1.6-0.5c-0.2,0.6,0,1.3,0.3,1.9c-0.3,0.1-0.5,0.3-0.8,0.5c-0.2,0.2-0.3,0.6-0.2,0.9c0.4,0.1,0.8,0.1,1.1,0.1
		c-0.1,0.7,0,1.4,0.1,2.1c0,0.1,0.1,0.2,0.1,0.3c0.1,0.1,0.3,0,0.4-0.1c0.6-0.3,1-0.8,1.3-1.4l0.6,1.4c0,0.1,0.1,0.3,0.3,0.4
		c0.2,0.1,0.4,0,0.5-0.2c0.1-0.2,0.2-0.4,0.2-0.5l0.2-1.4c0-0.1,0-0.1,0.1-0.2c0.1,0,0.2-0.1,0.2-0.1c0.6,0,1.1,0,1.7,0
		c0.1-0.3-0.2-0.6-0.5-0.7s-0.7-0.2-0.8-0.5c-0.3-0.6,0.5-1.4,0.1-1.9S518.3,149.7,517.8,149.9z"/>
	<path class="st3" d="M536.6,185.2c-0.1,0.1-0.3,0.1-0.4-0.1c0,0,0-0.1,0-0.1c-0.3-0.6-0.1-1.4-0.5-1.9c-0.4,0.5-0.8,1.1-1,1.7
		l-1.6-0.5c-0.2,0.6,0,1.3,0.3,1.9c-0.3,0.1-0.5,0.3-0.8,0.5c-0.2,0.2-0.3,0.6-0.2,0.9c0.4,0.1,0.8,0.1,1.2,0.1
		c-0.1,0.7,0,1.4,0.1,2.1c0,0.1,0.1,0.2,0.1,0.3c0.1,0.1,0.3,0,0.4-0.1c0.6-0.3,1-0.8,1.3-1.4l0.6,1.4c0,0.1,0.1,0.3,0.3,0.4
		c0.2,0.1,0.4,0,0.5-0.2c0.1-0.2,0.1-0.4,0.1-0.6l0.2-1.4c0-0.1,0-0.1,0.1-0.2c0.1-0.1,0.2-0.1,0.2-0.1c0.6,0,1.2,0,1.7,0
		c0.1-0.3-0.2-0.6-0.5-0.7s-0.6-0.2-0.8-0.5c-0.3-0.6,0.5-1.4,0.2-1.9S537.1,184.9,536.6,185.2z"/>
</g>
<g class="st8">
	<path class="st0" d="M788.6,38.7c-2.4-3.3-7.5,0.3-5.2,3.7c0.6,0.9,1.2,1.8,1.9,2.6c7.5,10.1,11.3,22.3,14.7,34.4
		c0.8,3,1.6,6.1,0.7,9.1c1.3-7.9,0.5-16-1.5-23.7s-5.1-15.1-8.4-22.4C790.1,41.1,789.4,39.8,788.6,38.7z"/>
	<path class="st1" d="M740.1,59.9c-5-0.2-5.7,7.5-0.7,7.9c1.3,0.1,2.6,0.1,3.9,0.2c15.4,0.4,30,6,44,12c3.4,1.5,7,3.1,9.1,6.3
		c-6.3-7.3-14.7-12.7-23.5-16.7s-18.3-6.5-27.7-9C743.6,60.2,741.9,59.9,740.1,59.9z"/>
	<path class="st2" d="M741.5,78.7c-3.2,0.1-2.5,4.6,0.7,4.7c0.8,0,1.7,0,2.5-0.1c9.7-0.4,19.7,2.3,29.4,5.2c2.4,0.7,4.9,1.6,6.6,3.3
		c-5.1-4-11-7-17.2-8.8c-6.1-1.8-12.4-3.2-18.7-4.1C743.8,78.7,742.7,78.6,741.5,78.7z"/>
	<path class="st0" d="M806.7,162.7c0.9,3.1,5.1,1.2,4.3-1.9c-0.2-0.8-0.4-1.6-0.7-2.4c-2.8-9.3-2.7-19.7-2.2-29.8
		c0.1-2.5,0.3-5.1,1.6-7.2c-2.6,6-4,12.3-4.3,18.8c-0.2,6.4,0,12.8,0.7,19.1C806.2,160.6,806.4,161.7,806.7,162.7z"/>
	<path class="st2" d="M747.3,34.4c-1.9-0.3-2.1,2.5-0.2,2.9c0.5,0.1,1,0.2,1.5,0.3c5.9,1,11.5,3.9,16.9,6.9c1.4,0.6,2.6,1.6,3.5,2.8
		c-2.6-3-5.7-5.5-9.1-7.4c-3.4-1.9-7-3.5-10.6-4.8C748.7,34.7,748,34.5,747.3,34.4z"/>
	<path class="st1" d="M717.8,108.4c-4.9,2.5-0.8,9.4,4.2,7.1c1.3-0.6,2.6-1.3,3.8-1.9c14.9-7.7,32.1-10.5,49.1-12.7
		c4.2-0.5,8.6-1,12.5,0.6c-10.5-3-21.7-3.2-32.5-2s-21.3,4-31.7,6.8C721.3,106.8,719.5,107.5,717.8,108.4z"/>
	<path class="st0" d="M731.6,135.1c-3.5,3.3,2,7.1,5.6,4c1-0.8,1.9-1.7,2.8-2.5c10.6-10,24.7-17.1,38.7-23.7
		c3.4-1.6,17.6-3.3,21.4-3.2c-9.9,0.9-30,4-39,8c-8.8,4.2-17.3,8.9-25.4,14.3C734.2,132.9,732.9,134,731.6,135.1z"/>
	<path class="st1" d="M756.6,177.8c-1,4.7,5.7,4.7,6.9,0.1c0.3-1.2,0.6-2.5,0.8-3.6c3.1-14.3,10.6-28.1,18.4-41.5
		c1.9-3.3,12.6-12.7,15.8-14.7c-7.6,6.3-22.5,20.3-27.5,28.8c-4.9,8.4-9.1,17.2-12.8,26.2C757.5,174.5,756.9,176.1,756.6,177.8z"/>
	<path class="st1" d="M806.7,14c-2.4-4.8-9.2-0.9-7,4.1c0.6,1.3,1.2,2.6,1.8,3.8c7.3,14.8,9.8,32,11.7,48.8
		c0.5,4.1,0.8,8.5-0.8,12.3c3.1-10.4,3.5-21.4,2.4-32.2s-3.6-21.2-6.2-31.5C808.2,17.5,807.5,15.7,806.7,14z"/>
	<path class="st1" d="M768.8,22.2c0.1,0.1,0.3,0.1,0.4,0.1c0.3,0,0.5-0.3,0.6-0.5c0.6-1.3,0.3-3,1.2-4c0.9,1.1,1.7,2.4,2.2,3.7
		l3.5-1.1c0.3,1.4,0.1,2.8-0.7,4c0.6,0.3,1.2,0.7,1.6,1.1c0.5,0.5,0.6,1.2,0.4,1.8c-0.8,0.2-1.6,0.3-2.5,0.2c0.1,1.5,0,3.1-0.3,4.6
		c0,0.2-0.1,0.4-0.3,0.6c-0.3,0.2-0.6,0-0.8-0.1c-1.2-0.7-2.2-1.8-2.9-3l-1.3,3c-0.1,0.3-0.3,0.6-0.6,0.8c-0.4,0.1-0.9,0-1.1-0.4
		c-0.2-0.4-0.3-0.8-0.4-1.2l-0.5-3c0-0.2-0.1-0.3-0.2-0.4c-0.1-0.1-0.3-0.2-0.5-0.2c-1.2,0-2.5,0-3.7,0c-0.2-0.7,0.4-1.3,1.1-1.5
		s1.4-0.5,1.7-1.1c0.6-1.3-1-3-0.3-4.1C766.4,20.4,767.7,21.7,768.8,22.2z"/>
	<path class="st0" d="M836.2,38.7c2.4-3.3,7.4,0.3,5.2,3.7c-0.6,0.9-1.2,1.8-1.9,2.6c-7.5,10.1-11.3,22.3-14.7,34.4
		c-0.8,3-1.6,6.1-0.7,9.1c-1.3-7.9-0.5-16,1.5-23.7s5.1-15.1,8.4-22.4C834.7,41.1,835.4,39.8,836.2,38.7z"/>
	<path class="st1" d="M884.7,59.9c5-0.2,5.7,7.5,0.7,7.9c-1.3,0.1-2.6,0.1-3.9,0.2c-15.4,0.4-30,6-44,12c-3.4,1.5-7.1,3.1-9.1,6.3
		c6.3-7.3,14.6-12.7,23.5-16.7s18.3-6.5,27.7-9C881.2,60.2,882.9,59.9,884.7,59.9z"/>
	<path class="st0" d="M883.3,78.7c3.2,0.1,2.5,4.6-0.7,4.7c-0.8,0-1.7,0-2.5-0.1c-9.7-0.4-19.7,2.3-29.4,5.2
		c-2.4,0.7-4.9,1.6-6.6,3.3c5.1-4,11-7,17.2-8.8c6.1-1.8,12.4-3.2,18.7-4.1C881.1,78.7,882.2,78.6,883.3,78.7z"/>
	<path class="st2" d="M877.5,34.4c1.9-0.3,2.1,2.5,0.2,2.9c-0.5,0.1-1,0.2-1.5,0.3c-5.9,1-11.5,3.9-16.9,6.9
		c-1.4,0.6-2.6,1.6-3.5,2.8c2.6-3,5.7-5.5,9.1-7.4c3.4-1.9,7-3.5,10.6-4.8C876.2,34.7,876.8,34.5,877.5,34.4z"/>
	<path class="st2" d="M827.6,168.5c-0.4,1.9-3.1,1-2.7-1c0.1-0.5,0.2-1,0.3-1.5c1.3-5.8,0.8-12.1,0.2-18.2c0-1.5-0.5-3-1.3-4.3
		c1.8,3.5,2.9,7.4,3.3,11.3c0.4,3.9,0.5,7.8,0.3,11.7C827.8,167.2,827.8,167.9,827.6,168.5z"/>
	<path class="st0" d="M876.3,155.9c1.5,2.5-2.2,2.4-3.8-0.2c-0.4-0.7-0.8-1.3-1.2-2c-4.6-7.8-11.5-15.4-18.5-22.8
		c-1.7-1.9-3.6-3.6-5.7-4.9c5.5,3.7,10.5,8,15,12.8c4.5,4.7,8.4,9.6,12.3,14.5C875.1,154.1,875.7,155,876.3,155.9z"/>
	<path class="st2" d="M743.1,155.9c-1.5,2.5,2.2,2.4,3.8-0.2c0.4-0.7,0.8-1.3,1.2-2c4.6-7.8,11.5-15.4,18.5-22.8
		c1.7-1.9,3.6-3.6,5.7-4.9c-5.5,3.7-10.5,8-15,12.8c-4.5,4.7-8.5,9.6-12.3,14.5C744.3,154.1,743.7,155,743.1,155.9z"/>
	<path class="st2" d="M791.8,168.5c0.4,1.9,3.1,1,2.7-1c-0.1-0.5-0.2-1-0.3-1.5c-1.3-5.8-0.8-12.1-0.2-18.2c0-1.5,0.5-3,1.3-4.3
		c-1.8,3.5-2.9,7.4-3.3,11.3c-0.4,3.9-0.5,7.8-0.3,11.7C791.6,167.2,791.7,167.9,791.8,168.5z"/>
	<path class="st2" d="M862.2,53.5c1.9-0.3,2.1,2.4,0.2,2.9c-0.5,0.1-1,0.2-1.5,0.3c-5.9,1-11.5,3.9-16.9,6.9
		c-1.4,0.6-2.6,1.6-3.5,2.8c2.6-3,5.7-5.5,9.1-7.4c3.4-1.9,7-3.5,10.6-4.8C860.8,53.8,861.5,53.6,862.2,53.5z"/>
	<path class="st2" d="M844.3,16.1c1.7-1,2.8,1.5,1.2,2.6c-0.4,0.3-0.9,0.5-1.3,0.8c-5.1,3.1-9.2,7.9-13.1,12.7
		c-1.1,1.1-1.8,2.5-2.2,3.9c1.2-3.8,3.2-7.3,5.7-10.3c2.5-3,5.2-5.8,8.1-8.5C843.2,16.9,843.7,16.4,844.3,16.1z"/>
	<path class="st1" d="M907.1,108.4c4.9,2.5,0.8,9.4-4.2,7.1c-1.3-0.6-2.6-1.3-3.8-1.9c-14.9-7.7-32.1-10.5-49.1-12.7
		c-4.2-0.5-8.6-1-12.5,0.6c10.5-3,21.7-3.2,32.5-2s21.3,4,31.7,6.8C903.6,106.8,905.4,107.5,907.1,108.4z"/>
	<path class="st0" d="M893.2,135.1c3.5,3.3-2,7.1-5.6,4c-1-0.8-1.9-1.7-2.7-2.5c-10.7-10-24.7-17.1-38.7-23.7
		c-3.4-1.6-17.6-3.3-21.4-3.2c9.9,0.9,30,4,39,8c8.8,4.2,17.3,8.9,25.4,14.3C890.6,132.9,891.9,134,893.2,135.1z"/>
	<path class="st1" d="M852,183.1c0.4,4.8-6.2,4-6.8-0.8c-0.2-1.3-0.3-2.5-0.4-3.7c-1.3-14.5-7-29.2-13.1-43.5
		c-1.5-3.5-10.9-14.1-13.8-16.6c6.8,7.2,19.7,23,23.7,32c3.8,9,6.9,18.2,9.4,27.6C851.5,179.8,851.8,181.4,852,183.1z"/>
	<path class="st1" d="M856,22.2c-0.1,0.1-0.3,0.1-0.4,0.1c-0.3,0-0.5-0.3-0.6-0.5c-0.6-1.3-0.3-3-1.2-4c-0.9,1.1-1.7,2.4-2.2,3.7
		l-3.5-1.1c-0.3,1.4-0.1,2.8,0.7,4c-0.6,0.3-1.2,0.6-1.7,1.1c-0.5,0.5-0.6,1.2-0.4,1.8c0.8,0.2,1.6,0.3,2.5,0.2
		c-0.1,1.5,0,3.1,0.3,4.6c0,0.2,0.1,0.4,0.3,0.6c0.3,0.2,0.6,0,0.9-0.1c1.2-0.7,2.2-1.8,2.9-3l1.3,3.1c0.1,0.3,0.3,0.6,0.6,0.8
		c0.4,0.1,0.9,0,1.1-0.4c0.2-0.4,0.4-0.8,0.4-1.2l0.5-3c0-0.2,0.1-0.3,0.2-0.4c0.1-0.1,0.3-0.2,0.5-0.2c1.2,0,2.5,0,3.7,0
		c0.2-0.7-0.5-1.3-1.1-1.5s-1.4-0.5-1.7-1.1c-0.6-1.3,1-3,0.3-4.1C858.4,20.4,857.1,21.7,856,22.2z"/>
	<path class="st2" d="M866.5,166c-0.1,0.1-0.3,0.1-0.4,0.1c-0.3,0-0.5-0.3-0.6-0.5c-0.6-1.3-0.3-3-1.2-4.1c-0.9,1.1-1.7,2.4-2.2,3.7
		l-3.5-1.1c-0.3,1.4-0.1,2.8,0.7,4c-0.6,0.3-1.2,0.7-1.6,1.1c-0.5,0.5-0.6,1.2-0.4,1.9c0.8,0.2,1.6,0.3,2.5,0.3
		c-0.1,1.5,0,3.1,0.3,4.6c0,0.2,0.1,0.4,0.3,0.6c0.3,0.2,0.6,0,0.8-0.1c1.2-0.7,2.2-1.8,2.9-3l1.3,3.1c0.1,0.3,0.3,0.6,0.6,0.8
		c0.4,0.1,0.8,0,1.1-0.4c0.2-0.4,0.3-0.8,0.4-1.2l0.5-2.9c0-0.3,0.2-0.6,0.5-0.6c0.1,0,0.1,0,0.2,0c1.2,0,2.5-0.1,3.7,0
		c0.2-0.7-0.4-1.3-1.1-1.5s-1.4-0.5-1.7-1.1c-0.6-1.2,1-3,0.3-4C869,164.2,867.6,165.5,866.5,166z"/>
	<path class="st1" d="M896.1,69.6c-0.1,0.1-0.3,0.1-0.4,0.1c-0.3,0-0.4-0.3-0.5-0.5c-0.6-1.3-0.3-3-1.2-4.1
		c-0.9,1.1-1.7,2.4-2.2,3.7l-3.5-1.1c-0.3,1.4-0.1,2.8,0.7,4c-0.6,0.3-1.2,0.6-1.7,1.1c-0.5,0.5-0.6,1.2-0.4,1.8
		c0.8,0.2,1.6,0.3,2.5,0.3c-0.1,1.5,0,3.1,0.3,4.6c0,0.2,0.1,0.4,0.3,0.6c0.3,0.2,0.6,0,0.8-0.1c1.2-0.7,2.2-1.8,2.9-3l1.3,3.1
		c0.1,0.3,0.3,0.6,0.6,0.8c0.4,0.1,0.9,0,1.1-0.4c0.2-0.4,0.4-0.8,0.4-1.2l0.5-3c0-0.1,0.1-0.3,0.2-0.4c0.1-0.1,0.3-0.2,0.5-0.2
		c1.2,0,2.5,0,3.7,0c0.2-0.7-0.4-1.3-1.1-1.5s-1.4-0.5-1.7-1.1c-0.6-1.3,1-3,0.3-4.1C898.5,67.8,897.2,69.1,896.1,69.6z"/>
	<path class="st1" d="M777.8,180.4c-0.2,0.1-0.4,0.2-0.6,0.2c-0.4,0-0.6-0.4-0.8-0.7c-0.8-1.8-0.3-4.1-1.6-5.6
		c-1.3,1.6-2.3,3.3-3.1,5.2l-4.9-1.5c-0.5,1.9-0.1,3.9,0.9,5.6c-0.9,0.4-1.6,0.9-2.3,1.6c-0.7,0.7-0.9,1.7-0.6,2.6
		c1.1,0.3,2.3,0.4,3.4,0.4c-0.2,2.1-0.1,4.3,0.4,6.4c0,0.3,0.2,0.6,0.4,0.8c0.4,0.2,0.9,0.1,1.2-0.2c1.7-1,3.1-2.5,4-4.2l1.8,4.3
		c0.1,0.4,0.4,0.8,0.8,1.1c0.6,0.2,1.2,0,1.5-0.5c0.3-0.5,0.5-1.1,0.5-1.6l0.7-4.1c0-0.2,0.1-0.4,0.2-0.6c0.2-0.2,0.5-0.2,0.7-0.2
		c1.7,0,3.4-0.1,5.2,0c0.3-0.9-0.6-1.8-1.5-2.1c-0.9-0.4-1.9-0.7-2.4-1.5c-0.9-1.7,1.4-4.2,0.4-5.7
		C781.2,177.9,779.3,179.7,777.8,180.4z"/>
	<path class="st1" d="M728.6,72.5c-0.2,0.1-0.4,0.2-0.6,0.2c-0.4,0-0.6-0.4-0.8-0.7c-0.8-1.8-0.3-4.1-1.6-5.7
		c-1.3,1.6-2.3,3.3-3.1,5.2l-4.9-1.5c-0.5,1.9-0.1,3.9,0.9,5.6c-0.9,0.4-1.6,0.9-2.3,1.6c-0.7,0.7-0.9,1.7-0.6,2.6
		c1.1,0.3,2.3,0.4,3.4,0.3c-0.2,2.1-0.1,4.3,0.4,6.4c0,0.3,0.2,0.6,0.4,0.8c0.4,0.2,0.8,0,1.2-0.2c1.7-1,3.1-2.5,4-4.2l1.8,4.3
		c0.1,0.4,0.4,0.8,0.8,1.1c0.6,0.2,1.2,0,1.5-0.5c0.3-0.5,0.5-1.1,0.5-1.6l0.7-4.1c0-0.2,0.1-0.4,0.2-0.6c0.2-0.2,0.5-0.2,0.7-0.2
		c1.7,0,3.4-0.1,5.2-0.1c0.3-0.9-0.6-1.8-1.5-2.1s-1.9-0.7-2.4-1.5c-0.9-1.7,1.4-4.2,0.4-5.7C732,70,730.1,71.7,728.6,72.5z"/>
	<path class="st2" d="M878,139.3c-0.1,0.1-0.2,0.1-0.3,0.1c-0.2,0-0.3-0.2-0.4-0.4c-0.4-1-0.2-2.2-0.9-3c-0.7,0.8-1.2,1.8-1.6,2.8
		l-2.6-0.8c-0.3,1-0.1,2.1,0.5,3c-0.5,0.2-0.9,0.5-1.2,0.8c-0.3,0.4-0.5,0.9-0.3,1.4c0.6,0.1,1.2,0.2,1.8,0.2
		c-0.1,1.1,0,2.3,0.2,3.4c0,0.2,0.1,0.3,0.2,0.4c0.2,0.1,0.4,0,0.6-0.1c0.9-0.6,1.6-1.3,2.1-2.3l1,2.3c0.1,0.2,0.2,0.4,0.4,0.6
		c0.3,0.1,0.6,0,0.8-0.3c0.2-0.3,0.3-0.6,0.3-0.9l0.4-2.2c0-0.2,0.2-0.4,0.4-0.4c0,0,0.1,0,0.1,0c0.9,0,1.8,0,2.7,0
		c0.2-0.5-0.3-0.9-0.8-1.1c-0.5-0.2-1-0.4-1.3-0.8c-0.5-0.9,0.8-2.2,0.2-3C879.9,138.2,878.8,138.9,878,139.3z"/>
	<path class="st2" d="M811.1,177.9c-0.1,0.1-0.2,0.1-0.3,0.1c-0.2,0-0.3-0.2-0.4-0.4c-0.4-1-0.2-2.2-0.9-3c-0.7,0.8-1.2,1.8-1.7,2.8
		l-2.6-0.8c-0.3,1-0.1,2.1,0.5,3c-0.5,0.2-0.9,0.5-1.2,0.8c-0.4,0.4-0.5,0.9-0.3,1.4c0.6,0.1,1.2,0.2,1.8,0.2
		c-0.1,1.1,0,2.3,0.2,3.4c0,0.2,0.1,0.3,0.2,0.4c0.2,0.1,0.4,0,0.6-0.1c0.9-0.6,1.6-1.3,2.1-2.3l1,2.3c0.1,0.2,0.2,0.4,0.4,0.6
		c0.3,0.1,0.6,0,0.8-0.3c0.2-0.3,0.3-0.6,0.3-0.9l0.4-2.2c0-0.1,0-0.2,0.1-0.3c0.1-0.1,0.2-0.1,0.4-0.1c0.9,0,1.8,0,2.7,0
		c0.2-0.5-0.3-0.9-0.8-1.1c-0.5-0.2-1-0.4-1.3-0.8c-0.5-0.9,0.8-2.2,0.2-3C813,176.8,811.9,177.5,811.1,177.9z"/>
	<path class="st0" d="M746.4,42.8c-0.1,0.1-0.2,0.1-0.3,0.1c-0.2,0-0.4-0.2-0.4-0.4c-0.4-1-0.2-2.2-0.9-3c-0.7,0.8-1.2,1.8-1.7,2.8
		l-2.6-0.8c-0.3,1-0.1,2.1,0.5,3c-0.5,0.2-0.9,0.5-1.2,0.8c-0.4,0.4-0.5,0.9-0.3,1.4c0.6,0.1,1.2,0.2,1.8,0.2
		c-0.1,1.1,0,2.3,0.2,3.4c0,0.2,0.1,0.3,0.2,0.4c0.2,0.1,0.4,0,0.6-0.1c0.9-0.6,1.6-1.3,2.1-2.3l1,2.3c0.1,0.2,0.2,0.4,0.4,0.6
		c0.3,0.1,0.6,0,0.8-0.3c0.2-0.3,0.3-0.6,0.3-0.9l0.4-2.2c0-0.1,0-0.2,0.1-0.3c0.1-0.1,0.2-0.1,0.4-0.1c0.9,0,1.8,0,2.7,0
		c0.2-0.5-0.3-0.9-0.8-1.1s-1-0.4-1.3-0.8c-0.5-0.9,0.8-2.2,0.2-3S747.2,42.4,746.4,42.8z"/>
	<path class="st0" d="M780.8,119c-0.1,0.1-0.2,0.1-0.3,0.1c-0.2,0-0.3-0.2-0.4-0.4c-0.4-1-0.2-2.2-0.9-3c-0.7,0.8-1.2,1.8-1.6,2.8
		l-2.6-0.8c-0.3,1-0.1,2.1,0.5,3c-0.5,0.2-0.9,0.5-1.2,0.8c-0.4,0.4-0.5,0.9-0.3,1.4c0.6,0.1,1.2,0.2,1.8,0.2
		c-0.1,1.1,0,2.3,0.2,3.4c0,0.2,0.1,0.3,0.2,0.4c0.2,0.1,0.4,0,0.6-0.1c0.9-0.6,1.6-1.3,2.1-2.3l1,2.3c0.1,0.2,0.2,0.4,0.4,0.6
		c0.3,0.1,0.6,0,0.8-0.3c0.2-0.3,0.3-0.6,0.3-0.9l0.4-2.2c0-0.1,0-0.2,0.1-0.3c0.1-0.1,0.2-0.1,0.4-0.1c0.9,0,1.8,0,2.7,0
		c0.2-0.5-0.3-0.9-0.8-1.1s-1-0.4-1.3-0.8c-0.5-0.9,0.8-2.2,0.2-3S781.6,118.6,780.8,119z"/>
	<path class="st0" d="M755.8,89.3c-0.1,0.1-0.2,0.1-0.3,0.1c-0.2,0-0.4-0.2-0.4-0.4c-0.4-0.9-0.2-2.2-0.9-3
		c-0.7,0.8-1.2,1.8-1.6,2.8l-2.6-0.8c-0.2,1-0.1,2.1,0.5,3c-0.5,0.2-0.9,0.5-1.2,0.8c-0.3,0.4-0.5,0.9-0.3,1.4
		c0.6,0.1,1.2,0.2,1.8,0.2c-0.1,1.1,0,2.3,0.2,3.4c0,0.2,0.1,0.3,0.2,0.4c0.2,0.1,0.4,0,0.6-0.1c0.9-0.6,1.6-1.3,2.1-2.3l1,2.3
		c0.1,0.2,0.2,0.4,0.4,0.6c0.3,0.1,0.6,0,0.8-0.3c0.2-0.3,0.3-0.6,0.3-0.9l0.3-2.2c0-0.1,0-0.2,0.1-0.3c0.1-0.1,0.3-0.1,0.4-0.1
		c0.9,0,1.8,0,2.7,0c0.2-0.5-0.3-0.9-0.8-1.1s-1-0.4-1.3-0.8c-0.5-0.9,0.8-2.2,0.2-3S756.7,88.9,755.8,89.3z"/>
	<path class="st0" d="M863.2,96.3c-0.1,0.1-0.2,0.1-0.3,0.1c-0.2,0-0.3-0.2-0.4-0.4c-0.4-1-0.2-2.2-0.9-3c-0.7,0.8-1.2,1.8-1.6,2.8
		l-2.6-0.8c-0.3,1-0.1,2.1,0.5,3c-0.5,0.2-0.9,0.5-1.2,0.8c-0.3,0.4-0.5,0.9-0.3,1.4c0.6,0.1,1.2,0.2,1.8,0.2
		c-0.1,1.1,0,2.3,0.2,3.4c0,0.2,0.1,0.3,0.2,0.4c0.2,0.1,0.4,0,0.6-0.1c0.9-0.6,1.6-1.3,2.1-2.3l1,2.3c0.1,0.2,0.2,0.4,0.4,0.6
		c0.3,0.1,0.6,0,0.8-0.3c0.2-0.3,0.3-0.6,0.3-0.9l0.4-2.2c0-0.2,0.1-0.4,0.4-0.4c0,0,0.1,0,0.1,0c0.9,0,1.8,0,2.7,0
		c0.2-0.5-0.3-0.9-0.8-1.1s-1-0.4-1.3-0.8c-0.5-0.9,0.8-2.2,0.2-3S864,95.9,863.2,96.3z"/>
	<path class="st2" d="M811.1,90.4c-0.1,0.1-0.2,0.1-0.3,0.1c-0.2,0-0.3-0.2-0.4-0.4c-0.4-1-0.2-2.2-0.9-3c-0.7,0.8-1.2,1.8-1.7,2.8
		l-2.6-0.8c-0.3,1-0.1,2.1,0.5,3c-0.5,0.2-0.9,0.5-1.2,0.8c-0.4,0.4-0.5,0.9-0.3,1.4c0.6,0.1,1.2,0.2,1.8,0.2
		c-0.1,1.1,0,2.3,0.2,3.4c0,0.2,0.1,0.3,0.2,0.4c0.2,0.1,0.4,0,0.6-0.1c0.9-0.6,1.6-1.3,2.1-2.3l1,2.3c0.1,0.2,0.2,0.4,0.4,0.6
		c0.3,0.1,0.6,0,0.8-0.3c0.2-0.3,0.3-0.6,0.3-0.9l0.4-2.2c0-0.1,0-0.2,0.1-0.3c0.1-0.1,0.2-0.1,0.4-0.1c0.9,0,1.8,0,2.7,0
		c0.2-0.5-0.3-0.9-0.8-1.1s-1-0.4-1.3-0.8c-0.5-0.9,0.8-2.2,0.2-3S811.9,90,811.1,90.4z"/>
	<path class="st3" d="M794.8,97.5c-0.1,0.1-0.2,0.1-0.3,0.1c-0.2,0-0.4-0.2-0.4-0.4c-0.4-1-0.2-2.2-0.9-3c-0.7,0.8-1.2,1.8-1.6,2.8
		l-2.6-0.8c-0.2,1-0.1,2.1,0.5,3c-0.5,0.2-0.9,0.5-1.2,0.8c-0.3,0.4-0.5,0.9-0.3,1.4c0.6,0.1,1.2,0.2,1.8,0.2
		c-0.1,1.1,0,2.3,0.2,3.4c0,0.2,0.1,0.3,0.2,0.4c0.2,0.1,0.4,0,0.6-0.1c0.9-0.6,1.6-1.3,2.1-2.3l1,2.3c0.1,0.2,0.2,0.4,0.4,0.6
		c0.3,0.1,0.6,0,0.8-0.3c0.2-0.3,0.3-0.6,0.3-0.9l0.4-2.2c0-0.1,0-0.2,0.1-0.3c0.1-0.1,0.3-0.1,0.4-0.1c0.9,0,1.8,0,2.7,0
		c0.2-0.5-0.3-0.9-0.8-1.1s-1-0.4-1.3-0.8c-0.5-0.9,0.8-2.2,0.2-3S795.6,97.1,794.8,97.5z"/>
	<path class="st2" d="M779.5,54.5c-0.1,0.1-0.2,0.1-0.3,0.1c-0.2,0-0.3-0.2-0.4-0.4c-0.4-1-0.2-2.2-0.9-3c-0.7,0.8-1.2,1.8-1.7,2.8
		l-2.6-0.8c-0.3,1-0.1,2.1,0.5,3c-0.5,0.2-0.9,0.5-1.2,0.8c-0.4,0.4-0.5,0.9-0.3,1.4c0.6,0.1,1.2,0.2,1.8,0.2
		c-0.1,1.1,0,2.3,0.2,3.4c0,0.2,0.1,0.3,0.2,0.4c0.2,0.1,0.4,0,0.6-0.1c0.9-0.5,1.6-1.3,2.1-2.3l1,2.3c0.1,0.2,0.2,0.4,0.4,0.6
		c0.3,0.1,0.6,0,0.8-0.3c0.2-0.3,0.3-0.6,0.3-0.9l0.4-2.2c0-0.1,0-0.2,0.1-0.3c0.1-0.1,0.2-0.1,0.4-0.1c0.9,0,1.8,0,2.7,0
		c0.2-0.5-0.3-0.9-0.8-1.1s-1-0.4-1.3-0.8c-0.5-0.9,0.8-2.2,0.2-3S780.3,54.1,779.5,54.5z"/>
	<path class="st3" d="M809.5,110.7c-0.1,0-0.2,0.1-0.3,0.1c-0.2,0-0.3-0.2-0.4-0.4c-0.4-0.9-0.2-2.2-0.9-3c-0.7,0.8-1.2,1.8-1.7,2.8
		l-2.6-0.8c-0.3,1-0.1,2.1,0.5,3c-0.5,0.2-0.9,0.5-1.2,0.8c-0.4,0.4-0.5,0.9-0.3,1.4c0.6,0.1,1.2,0.2,1.8,0.2
		c-0.1,1.1,0,2.3,0.2,3.4c0,0.2,0.1,0.3,0.2,0.4c0.2,0.1,0.4,0,0.6-0.1c0.9-0.6,1.6-1.3,2.1-2.3l1,2.3c0.1,0.2,0.2,0.4,0.4,0.6
		c0.3,0.1,0.6,0,0.8-0.3c0.2-0.3,0.3-0.6,0.3-0.9l0.4-2.2c0-0.1,0-0.2,0.1-0.3c0.1-0.1,0.2-0.1,0.4-0.1c0.9,0,1.8,0,2.7,0
		c0.2-0.5-0.3-0.9-0.8-1.1s-1-0.4-1.3-0.8c-0.5-0.9,0.8-2.2,0.2-3S810.3,110.3,809.5,110.7z"/>
</g>
<path class="st5" d="M849.2,665.5c2.2-3.8,3.3-8.1,3.3-12.5c0-11.3-7-20.5-15.7-20.5s-15.7,9.2-15.7,20.5c0,4.4,1.1,8.7,3.3,12.5
	c-4.4,7.8-4.4,17.3,0,25.1c-4.4,7.8-4.4,17.3,0,25.1c-4.4,7.8-4.4,17.3,0,25.1c-2.2,3.8-3.3,8.1-3.3,12.5c0,11.3,7,20.5,15.7,20.5
	s15.7-9.2,15.7-20.5c0-4.4-1.1-8.7-3.3-12.5c4.4-7.8,4.4-17.3,0-25.1c4.4-7.8,4.4-17.3,0-25.1C853.5,682.8,853.5,673.3,849.2,665.5z
	"/>
<ellipse class="st5" cx="836.8" cy="627.9" rx="15.7" ry="20.5"/>
<ellipse class="st5" cx="836.8" cy="602.8" rx="15.7" ry="20.5"/>
<path class="st1" d="M778.1,431.2c-2.1-2.7-4.1-5.6-5.8-8.6l41.2-6.8l-44.5,0.3c-8.6-18.8-9.1-40.3-1.4-59.5l59.8,31l-55.1-40.5
	c20.7-36,66.6-48.3,102.5-27.7c36,20.7,48.3,66.6,27.7,102.5c-1.8,3.2-3.9,6.3-6.2,9.1c3.3,4.2,6.2,8.8,8.6,13.7l-53.4,27.8l57-19.1
	c8.1,24,3.6,50.6-12.1,70.5c25.6,32.6,20,79.8-12.6,105.4c-32.6,25.6-79.8,20-105.4-12.6c-21.4-27.2-21.4-65.6,0-92.9
	C756.7,496.8,756.7,458.5,778.1,431.2L778.1,431.2z"/>
<path class="st6" d="M912.2,477.6c0,16.8-5.6,33.2-16.1,46.4c25.6,32.6,20,79.8-12.6,105.4c-32.6,25.6-79.8,20-105.4-12.6
	c-21.4-27.2-21.4-65.6,0-92.9C768,511.2,912.2,469.2,912.2,477.6z"/>
<path class="st5" d="M275.4,672.8c2.3-4,3.5-8.6,3.5-13.3c0-12-7.4-21.7-16.6-21.7s-16.6,9.7-16.6,21.7c0,4.7,1.2,9.2,3.5,13.3
	c-4.6,8.2-4.6,18.3,0,26.6c-4.6,8.2-4.6,18.3,0,26.6c-4.6,8.2-4.6,18.3,0,26.5c-2.3,4-3.5,8.6-3.5,13.3c0,12,7.4,21.7,16.6,21.7
	s16.6-9.7,16.6-21.7c0-4.7-1.2-9.2-3.5-13.3c4.6-8.2,4.6-18.3,0-26.5c4.6-8.2,4.6-18.3,0-26.6C280,691.1,280,681,275.4,672.8z"/>
<ellipse class="st5" cx="262.3" cy="633" rx="16.6" ry="21.7"/>
<ellipse class="st5" cx="262.3" cy="606.4" rx="16.6" ry="21.7"/>
<path class="st1" d="M324.4,424.7c2.3-2.9,4.3-5.9,6.2-9.1l-43.6-7.2l47.2,0.4c9.1-19.9,9.7-42.7,1.5-63l-63.3,32.8l58.4-42.9
	c-22.1-38-70.7-50.9-108.7-28.8c-38,22.1-50.9,70.7-28.8,108.7c1.8,3.2,3.9,6.2,6.2,9.1c-3.5,4.5-6.6,9.4-9.1,14.5l56.6,29.4
	l-60.4-20.3c-8.6,25.5-3.8,53.5,12.8,74.7c-27.1,34.5-21.2,84.5,13.4,111.6c34.5,27.1,84.5,21.2,111.6-13.4
	c22.7-28.8,22.7-69.5,0-98.3C347.1,494.1,347.1,453.5,324.4,424.7L324.4,424.7z"/>
<path class="st6" d="M182.4,473.8c0,17.8,6,35.1,17,49.2c-27.1,34.5-21.2,84.5,13.4,111.6c34.5,27.1,84.5,21.2,111.6-13.4
	c22.7-28.8,22.7-69.5,0-98.3C335,509.4,182.4,464.9,182.4,473.8z"/>
<ellipse class="st5" cx="543" cy="784.8" rx="543" ry="26.5"/>
<path class="st6" d="M542.8,758.1c0.2,0.2,0.5,0.5,0.7,0.7c0.4,0.2,0.9,0.3,1.4,0.3c0.1,0,0.2,0,0.2,0c0.1,0,0.2-0.1,0.2-0.2
	l0.3-0.3"/>
<path class="st6" d="M491.5,663.6c1.7,1.9,4.6,2.2,6.6,0.5C495.9,664.8,493.5,664.7,491.5,663.6z"/>
<path class="st6" d="M485.8,718.7c0.7,0.7,1.7,1,2.7,0.8"/>
<path class="st6" d="M498.4,752.2c-0.4,0.3-0.9,0.4-1.4,0.3"/>
<path class="st1" d="M193.3,756.9l13.3-7.8c-1.8-3.1-4.1-5.8-6.8-8.2l-25.1,7.8l19.7-11.6c-15.5-8.5-34.9-2.8-43.4,12.7
	c-2.6,4.7-3.9,10-3.9,15.4c0,17.7,14.3,18.3,32,18.3s32-0.6,32-18.3c0-4.5-0.9-8.9-2.8-13L193.3,756.9z"/>
<path class="st6" d="M196.7,774.1c-1.4-1.4-3-2.7-4.7-3.7c-2.4-1.6-4.9-3.2-7.8-3.8c-2.5-0.5-5.1-0.1-7.6-0.2
	c-4.4-0.3-8.6-2.2-11.7-5.4c-1.8-1.9-3.3-4.2-5.4-5.6c-2.4-1.5-5.3-2-8.1-1.5c-0.8,0.1-1.6,0.3-2.4,0.5c-1.3,3.5-1.9,7.2-1.9,10.8
	c0,17.7,14.3,18.3,32,18.3c8.6,0,16.4-0.2,22.1-2.3l-1-1.8C199.2,777.5,198.1,775.7,196.7,774.1z"/>
<path class="st1" d="M973.3,756.9l13.3-7.8c-1.8-3.1-4.1-5.8-6.8-8.2l-25.1,7.8l19.7-11.6c-15.5-8.5-34.9-2.8-43.4,12.7
	c-2.6,4.7-3.9,10-3.9,15.4c0,17.7,14.3,18.3,32,18.3c17.7,0,32-0.6,32-18.3c0-4.5-0.9-8.9-2.8-13L973.3,756.9z"/>
<path class="st6" d="M976.7,774.1c-1.4-1.4-3-2.7-4.7-3.7c-2.4-1.6-4.9-3.2-7.8-3.8c-2.5-0.5-5.1-0.1-7.6-0.2
	c-4.4-0.3-8.6-2.2-11.7-5.4c-1.8-1.9-3.3-4.2-5.4-5.6c-2.4-1.5-5.3-2-8.1-1.5c-0.8,0.1-1.6,0.3-2.4,0.5c-1.3,3.5-1.9,7.2-1.9,10.8
	c0,17.7,14.3,18.3,32,18.3c8.6,0,16.4-0.2,22.1-2.3l-1-1.8C979.2,777.5,978.1,775.7,976.7,774.1z"/>
<path class="st1" d="M331.8,743.2l-10.4-6.1c1.4-2.4,3.2-4.5,5.3-6.4l19.6,6.1l-15.4-9c12.1-6.6,27.3-2.2,33.9,9.9
	c2,3.7,3.1,7.8,3.1,11.9c0,13.8-11.2,14.3-25,14.3s-25-0.5-25-14.3c0-3.5,0.7-6.9,2.1-10.1L331.8,743.2z"/>
<path class="st6" d="M329.2,756.7c1.1-1.1,2.3-2.1,3.7-2.9c1.8-1.4,3.9-2.4,6.1-3c2-0.4,4-0.1,6-0.2c3.5-0.2,6.7-1.7,9.1-4.2
	c1.4-1.5,2.5-3.3,4.3-4.4c1.9-1.1,4.2-1.6,6.4-1.2c0.6,0.1,1.3,0.2,1.9,0.4c1,2.7,1.5,5.6,1.5,8.4c0,13.8-11.2,14.3-25,14.3
	c-6.7,0-12.8-0.1-17.3-1.8l0.8-1.4C327.2,759.3,328.1,757.9,329.2,756.7z"/>
<path class="st1" d="M411.8,743.2l-10.4-6.1c1.4-2.4,3.2-4.5,5.3-6.4l19.6,6.1l-15.4-9c12.1-6.6,27.3-2.2,33.9,9.9
	c2,3.7,3.1,7.8,3.1,11.9c0,13.8-11.2,14.3-25,14.3s-25-0.5-25-14.3c0-3.5,0.7-6.9,2.1-10.1L411.8,743.2z"/>
<path class="st6" d="M409.2,756.7c1.1-1.1,2.3-2.1,3.7-2.9c1.8-1.4,3.9-2.4,6.1-3c2-0.4,4-0.1,6-0.2c3.5-0.2,6.7-1.7,9.1-4.2
	c1.4-1.5,2.5-3.3,4.3-4.4c1.9-1.1,4.2-1.6,6.4-1.2c0.6,0.1,1.3,0.2,1.9,0.4c1,2.7,1.5,5.6,1.5,8.4c0,13.8-11.2,14.3-25,14.3
	c-6.7,0-12.8-0.1-17.3-1.8l0.8-1.4C407.2,759.3,408.1,757.9,409.2,756.7z"/>
<path class="st1" d="M702.8,743.2l-10.4-6.1c1.4-2.4,3.2-4.5,5.3-6.4l19.6,6.1l-15.4-9c12.1-6.6,27.3-2.2,33.9,9.9
	c2,3.7,3.1,7.8,3.1,11.9c0,13.8-11.2,14.3-25,14.3s-25-0.5-25-14.3c0-3.5,0.7-6.9,2.2-10.1L702.8,743.2z"/>
<path class="st6" d="M700.2,756.7c1.1-1.1,2.3-2.1,3.7-2.9c1.8-1.4,3.9-2.4,6.1-3c2-0.4,4-0.1,6-0.2c3.5-0.2,6.7-1.7,9.1-4.2
	c1.4-1.5,2.5-3.3,4.3-4.4c1.9-1.1,4.2-1.6,6.4-1.2c0.6,0.1,1.3,0.2,1.9,0.4c1,2.7,1.5,5.6,1.5,8.4c0,13.8-11.2,14.3-25,14.3
	c-6.7,0-12.8-0.1-17.3-1.8l0.8-1.4C698.2,759.3,699.1,757.9,700.2,756.7z"/>
<path class="st5" d="M445.8,679c1.8-3.2,2.8-6.8,2.7-10.5c0-9.5-5.9-17.2-13.1-17.2s-13.1,7.7-13.1,17.2c0,3.7,0.9,7.3,2.7,10.5
	c-3.7,6.5-3.7,14.5,0,21c-3.7,6.5-3.7,14.5,0,21c-3.7,6.5-3.7,14.5,0,21c-1.8,3.2-2.8,6.8-2.7,10.5c0,9.5,5.9,17.2,13.1,17.2
	s13.1-7.7,13.1-17.2c0-3.7-0.9-7.3-2.7-10.5c3.7-6.5,3.7-14.5,0-21c3.7-6.5,3.7-14.5,0-21C449.5,693.4,449.5,685.5,445.8,679z"/>
<ellipse class="st5" cx="435.5" cy="647.5" rx="13.1" ry="17.2"/>
<ellipse class="st5" cx="435.5" cy="626.5" rx="13.1" ry="17.2"/>
<path class="st1" d="M484.6,482.9c1.8-2.3,3.4-4.7,4.9-7.2l-34.4-5.7l37.3,0.3c7.2-15.7,7.7-33.7,1.2-49.8l-50,25.9l46.1-33.9
	c-17.4-30-55.8-40.2-85.9-22.8c-30,17.4-40.2,55.8-22.8,85.9c1.5,2.5,3.1,5,4.9,7.3c-2.8,3.6-5.2,7.4-7.2,11.5l44.7,23.2l-47.7-16
	c-6.8,20.1-3,42.3,10.1,59c-21.4,27.3-16.7,66.8,10.5,88.2c27.3,21.4,66.8,16.7,88.2-10.5c17.9-22.8,17.9-54.9,0-77.7
	C502.5,537.8,502.5,505.7,484.6,482.9L484.6,482.9z"/>
<path class="st6" d="M372.4,521.8c0,14.1,4.7,27.8,13.4,38.8c-21.4,27.3-16.7,66.8,10.5,88.2c27.3,21.4,66.8,16.7,88.2-10.5
	c17.9-22.8,17.9-54.9,0-77.7C493,549.9,372.4,514.7,372.4,521.8z"/>
<path class="st5" d="M637.4,663.5c2.3-4,3.5-8.6,3.5-13.3c0-12-7.4-21.7-16.6-21.7s-16.6,9.7-16.6,21.7c0,4.7,1.2,9.2,3.5,13.3
	c-4.6,8.2-4.6,18.3,0,26.5c-4.6,8.2-4.6,18.3,0,26.6c-4.6,8.2-4.6,18.3,0,26.6c-2.3,4-3.5,8.6-3.5,13.3c0,12,7.4,21.7,16.6,21.7
	s16.6-9.7,16.6-21.7c0-4.7-1.1-9.2-3.5-13.3c4.6-8.3,4.6-18.3,0-26.6c4.6-8.3,4.6-18.3,0-26.6C642,681.8,642,671.7,637.4,663.5z"/>
<ellipse class="st5" cx="624.2" cy="623.7" rx="16.6" ry="21.7"/>
<ellipse class="st5" cx="624.2" cy="597.1" rx="16.6" ry="21.7"/>
<path class="st1" d="M562.1,415.3c-2.3-2.9-4.3-5.9-6.2-9.1l43.6-7.2l-47.2,0.4c-9.1-19.9-9.7-42.7-1.5-63l63.3,32.8l-58.4-42.9
	c22.1-38,70.7-50.9,108.7-28.8c38,22.1,50.9,70.7,28.8,108.7c-1.8,3.2-3.9,6.2-6.2,9.1c3.5,4.5,6.6,9.4,9.1,14.5l-56.6,29.4
	l60.4-20.3c8.6,25.5,3.8,53.5-12.8,74.7c27.1,34.5,21.2,84.5-13.4,111.6c-34.5,27.1-84.5,21.2-111.6-13.4
	c-22.7-28.8-22.7-69.5,0-98.3C539.4,484.8,539.4,444.2,562.1,415.3L562.1,415.3z"/>
<path class="st6" d="M704.1,464.5c0,17.8-6,35.2-17,49.2c27.1,34.5,21.2,84.5-13.4,111.6c-34.5,27.1-84.5,21.2-111.6-13.4
	c-22.7-28.8-22.7-69.5,0-98.3C551.4,500.1,704.1,455.6,704.1,464.5z"/>
</svg>
